<svg xmlns="http://www.w3.org/2000/svg" xmlns:xlink="http://www.w3.org/1999/xlink" width="3000" zoomAndPan="magnify" viewBox="0 0 2250 2250.000011" height="3000" preserveAspectRatio="xMidYMid meet" version="1.0"><defs><g/><clipPath id="483f80d8f1"><path d="M 0.5 803 L 2249.5 803 L 2249.5 1513 L 0.5 1513 Z M 0.5 803 " clip-rule="nonzero"/></clipPath><clipPath id="1fbf9dc795"><path d="M 0.5 0.402344 L 2249.5 0.402344 L 2249.5 432 L 0.5 432 Z M 0.5 0.402344 " clip-rule="nonzero"/></clipPath><clipPath id="35c48916af"><rect x="0" width="2250" y="0" height="432"/></clipPath><clipPath id="0612b46692"><path d="M 255 416 L 1996 416 L 1996 709.046875 L 255 709.046875 Z M 255 416 " clip-rule="nonzero"/></clipPath><clipPath id="9d4b2f70fd"><rect x="0" width="1741" y="0" height="294"/></clipPath><clipPath id="4df925c6c2"><rect x="0" width="2250" y="0" height="710"/></clipPath></defs><g clip-path="url(#483f80d8f1)"><g transform="matrix(1, 0, 0, 1, 0.000000000000000056, 803)"><g clip-path="url(#4df925c6c2)"><g clip-path="url(#1fbf9dc795)"><g transform="matrix(1, 0, 0, 1, 0.000000000000000056, -0.000000000000454747)"><g clip-path="url(#35c48916af)"><g fill="#ffffff" fill-opacity="1"><g transform="translate(0.694744, 331.826311)"><g><path d="M 11.78125 -15.8125 C 15.03125 -15.8125 19.457031 -16.765625 25.0625 -18.671875 C 30.675781 -20.578125 36.847656 -23.632812 43.578125 -27.84375 C 50.304688 -32.050781 57.3125 -37.460938 64.59375 -44.078125 C 71.882812 -50.691406 78.894531 -58.765625 85.625 -68.296875 L 190.28125 -217.1875 L 360.03125 -217.1875 L 451.71875 -72 C 458.101562 -61.90625 465.050781 -53.296875 472.5625 -46.171875 C 480.082031 -39.054688 487.515625 -33.253906 494.859375 -28.765625 C 502.210938 -24.273438 509.113281 -20.992188 515.5625 -18.921875 C 522.007812 -16.847656 527.421875 -15.8125 531.796875 -15.8125 L 531.796875 0 L 208.609375 0 L 208.609375 -15.8125 C 213.546875 -15.8125 218.453125 -16.484375 223.328125 -17.828125 C 228.210938 -19.179688 232.585938 -21.226562 236.453125 -23.96875 C 240.328125 -26.71875 243.441406 -30.164062 245.796875 -34.3125 C 248.148438 -38.46875 249.328125 -43.347656 249.328125 -48.953125 C 249.328125 -51.304688 248.765625 -54.390625 247.640625 -58.203125 L 113.5625 -58.203125 C 113 -56.640625 112.601562 -55.238281 112.375 -54 C 112.15625 -52.769531 112.046875 -51.59375 112.046875 -50.46875 C 112.046875 -44.75 113.222656 -39.726562 115.578125 -35.40625 C 117.929688 -31.09375 121.039062 -27.476562 124.90625 -24.5625 C 128.78125 -21.644531 133.15625 -19.457031 138.03125 -18 C 142.914062 -16.539062 147.878906 -15.8125 152.921875 -15.8125 L 152.921875 0 L 11.78125 0 Z M 237.546875 -81.59375 C 235.191406 -86.082031 232.441406 -91.269531 229.296875 -97.15625 C 226.160156 -103.039062 222.460938 -109.738281 218.203125 -117.25 C 213.941406 -124.769531 209.144531 -133.179688 203.8125 -142.484375 C 198.488281 -151.796875 192.460938 -162.175781 185.734375 -173.625 C 177.992188 -161.957031 170.984375 -151.410156 164.703125 -141.984375 C 158.421875 -132.566406 152.835938 -124.097656 147.953125 -116.578125 C 143.078125 -109.066406 138.816406 -102.453125 135.171875 -96.734375 C 131.523438 -91.015625 128.414062 -85.96875 125.84375 -81.59375 Z M 237.546875 -81.59375 "/></g></g><g transform="translate(536.691475, 331.826311)"><g><path d="M 12.625 -15.8125 C 22.71875 -16.144531 31.628906 -16.984375 39.359375 -18.328125 C 47.097656 -19.679688 53.851562 -21.816406 59.625 -24.734375 C 65.40625 -27.648438 70.257812 -31.519531 74.1875 -36.34375 C 78.113281 -41.164062 81.28125 -47.304688 83.6875 -54.765625 C 86.101562 -62.222656 87.84375 -71.191406 88.90625 -81.671875 C 89.976562 -92.160156 90.515625 -104.414062 90.515625 -118.4375 C 90.515625 -139.75 89.054688 -157.019531 86.140625 -170.25 C 83.222656 -183.488281 78.625 -193.78125 72.34375 -201.125 C 66.0625 -208.46875 58.015625 -213.429688 48.203125 -216.015625 C 38.390625 -218.597656 26.53125 -219.890625 12.625 -219.890625 L 12.625 -235.53125 L 238.390625 -250.671875 L 238.390625 -97.40625 C 246.578125 -103.125 254.425781 -109.09375 261.9375 -115.3125 C 269.457031 -121.539062 276.078125 -127.347656 281.796875 -132.734375 C 287.515625 -138.117188 292.082031 -142.800781 295.5 -146.78125 C 298.925781 -150.769531 300.640625 -153.4375 300.640625 -154.78125 C 300.640625 -157.019531 298.226562 -158.472656 293.40625 -159.140625 C 288.582031 -159.816406 282.019531 -160.15625 273.71875 -160.15625 L 273.71875 -175.96875 L 460.796875 -175.96875 L 460.796875 -160.15625 C 447.453125 -160.15625 432.816406 -158.582031 416.890625 -155.4375 C 400.960938 -152.300781 384.050781 -147.59375 366.15625 -141.3125 C 348.269531 -135.03125 329.566406 -127.125 310.046875 -117.59375 C 290.535156 -108.0625 270.519531 -96.90625 250 -84.125 C 260.3125 -85.800781 270.796875 -87.3125 281.453125 -88.65625 C 292.109375 -90 302.59375 -91.148438 312.90625 -92.109375 C 323.226562 -93.066406 333.1875 -93.796875 342.78125 -94.296875 C 352.375 -94.796875 361.265625 -95.046875 369.453125 -95.046875 C 381.109375 -95.046875 391.421875 -94.398438 400.390625 -93.109375 C 409.367188 -91.828125 417.050781 -89.78125 423.4375 -86.96875 C 429.832031 -84.164062 435.050781 -80.519531 439.09375 -76.03125 C 443.132812 -71.550781 445.992188 -66.113281 447.671875 -59.71875 C 449.691406 -52.320312 452.300781 -45.988281 455.5 -40.71875 C 458.695312 -35.445312 462.085938 -31.070312 465.671875 -27.59375 C 469.265625 -24.113281 472.882812 -21.503906 476.53125 -19.765625 C 480.175781 -18.023438 483.34375 -16.988281 486.03125 -16.65625 L 486.03125 1.015625 C 483.113281 1.910156 478.289062 2.832031 471.5625 3.78125 C 464.832031 4.738281 456.726562 5.664062 447.25 6.5625 C 437.769531 7.457031 427.195312 8.1875 415.53125 8.75 C 403.875 9.3125 391.648438 9.59375 378.859375 9.59375 C 365.515625 9.59375 354.128906 9.28125 344.703125 8.65625 C 335.285156 8.039062 327.296875 7.003906 320.734375 5.546875 C 314.179688 4.085938 308.882812 2.179688 304.84375 -0.171875 C 300.800781 -2.523438 297.546875 -5.492188 295.078125 -9.078125 C 292.617188 -12.671875 290.710938 -16.878906 289.359375 -21.703125 C 288.015625 -26.523438 286.785156 -32.078125 285.671875 -38.359375 C 284.765625 -42.953125 283.722656 -47.351562 282.546875 -51.5625 C 281.367188 -55.769531 279.179688 -59.5 275.984375 -62.75 C 272.796875 -66 268.253906 -68.601562 262.359375 -70.5625 C 256.472656 -72.53125 248.484375 -73.570312 238.390625 -73.6875 C 238.503906 -63.59375 239.035156 -54.898438 239.984375 -47.609375 C 240.941406 -40.316406 242.515625 -34.316406 244.703125 -29.609375 C 246.890625 -24.898438 249.804688 -21.421875 253.453125 -19.171875 C 257.097656 -16.929688 261.722656 -15.8125 267.328125 -15.8125 L 267.328125 0 L 12.625 0 Z M 12.625 -15.8125 "/></g></g><g transform="translate(1025.245935, 331.826311)"><g><path d="M 78.5625 -244.109375 C 78.5625 -249.828125 80.832031 -255.179688 85.375 -260.171875 C 89.914062 -265.160156 96.082031 -269.503906 103.875 -273.203125 C 111.675781 -276.910156 120.816406 -279.828125 131.296875 -281.953125 C 141.785156 -284.085938 152.921875 -285.15625 164.703125 -285.15625 C 176.585938 -285.15625 187.773438 -284.085938 198.265625 -281.953125 C 208.753906 -279.828125 217.921875 -276.910156 225.765625 -273.203125 C 233.617188 -269.503906 239.785156 -265.160156 244.265625 -260.171875 C 248.753906 -255.179688 251 -249.828125 251 -244.109375 C 251 -238.503906 248.753906 -233.234375 244.265625 -228.296875 C 239.785156 -223.359375 233.617188 -219.039062 225.765625 -215.34375 C 217.921875 -211.644531 208.753906 -208.726562 198.265625 -206.59375 C 187.773438 -204.457031 176.585938 -203.390625 164.703125 -203.390625 C 152.921875 -203.390625 141.785156 -204.457031 131.296875 -206.59375 C 120.816406 -208.726562 111.675781 -211.644531 103.875 -215.34375 C 96.082031 -219.039062 89.914062 -223.359375 85.375 -228.296875 C 80.832031 -233.234375 78.5625 -238.503906 78.5625 -244.109375 Z M 12.625 -15.8125 C 28.09375 -16.375 41.125 -18.335938 51.71875 -21.703125 C 62.320312 -25.066406 70.90625 -29.71875 77.46875 -35.65625 C 84.03125 -41.601562 88.769531 -48.835938 91.6875 -57.359375 C 94.601562 -65.890625 96.0625 -75.648438 96.0625 -86.640625 C 96.0625 -97.859375 94.601562 -107.472656 91.6875 -115.484375 C 88.769531 -123.503906 84.171875 -130.066406 77.890625 -135.171875 C 71.609375 -140.273438 63.5625 -144.003906 53.75 -146.359375 C 43.9375 -148.710938 32.078125 -149.890625 18.171875 -149.890625 L 18.171875 -165.71875 L 243.9375 -180.859375 L 243.9375 -86.640625 C 243.9375 -75.648438 244.890625 -65.890625 246.796875 -57.359375 C 248.703125 -48.835938 252.316406 -41.601562 257.640625 -35.65625 C 262.972656 -29.71875 270.378906 -25.066406 279.859375 -21.703125 C 289.335938 -18.335938 301.644531 -16.375 316.78125 -15.8125 L 316.78125 0 L 12.625 0 Z M 12.625 -15.8125 "/></g></g><g transform="translate(1344.555977, 331.826311)"><g><path d="M 11.78125 -15.8125 C 26.800781 -16.375 39.300781 -18.335938 49.28125 -21.703125 C 59.269531 -25.066406 67.265625 -29.71875 73.265625 -35.65625 C 79.265625 -41.601562 83.5 -48.835938 85.96875 -57.359375 C 88.4375 -65.890625 89.671875 -75.648438 89.671875 -86.640625 C 89.671875 -97.859375 88.210938 -107.472656 85.296875 -115.484375 C 82.378906 -123.503906 77.78125 -130.066406 71.5 -135.171875 C 65.21875 -140.273438 57.171875 -144.003906 47.359375 -146.359375 C 37.546875 -148.710938 25.6875 -149.890625 11.78125 -149.890625 L 11.78125 -165.71875 L 237.546875 -180.859375 L 237.546875 -155.953125 C 243.828125 -160.328125 250.890625 -164.222656 258.734375 -167.640625 C 266.585938 -171.066406 274.832031 -173.984375 283.46875 -176.390625 C 292.113281 -178.804688 301.03125 -180.628906 310.21875 -181.859375 C 319.414062 -183.097656 328.503906 -183.71875 337.484375 -183.71875 C 351.390625 -183.71875 363.414062 -182.535156 373.5625 -180.171875 C 383.71875 -177.816406 392.128906 -174.476562 398.796875 -170.15625 C 405.472656 -165.84375 410.410156 -160.6875 413.609375 -154.6875 C 416.804688 -148.6875 418.40625 -142.039062 418.40625 -134.75 C 418.40625 -129.257812 416.722656 -123.878906 413.359375 -118.609375 C 409.992188 -113.335938 405.113281 -108.597656 398.71875 -104.390625 C 392.320312 -100.179688 384.441406 -96.785156 375.078125 -94.203125 C 365.710938 -91.628906 355.03125 -90.34375 343.03125 -90.34375 C 332.15625 -90.34375 322.3125 -91.179688 313.5 -92.859375 C 304.695312 -94.546875 297.15625 -96.929688 290.875 -100.015625 C 284.59375 -103.097656 279.742188 -106.769531 276.328125 -111.03125 C 272.910156 -115.289062 271.203125 -120.003906 271.203125 -125.171875 C 271.203125 -131.222656 273.019531 -136.460938 276.65625 -140.890625 C 280.300781 -145.328125 285.007812 -148.972656 290.78125 -151.828125 C 296.5625 -154.691406 302.984375 -156.851562 310.046875 -158.3125 C 317.117188 -159.769531 324.078125 -160.554688 330.921875 -160.671875 C 320.597656 -160.671875 311.203125 -160.21875 302.734375 -159.3125 C 294.265625 -158.414062 286.328125 -157.039062 278.921875 -155.1875 C 271.523438 -153.34375 264.460938 -150.929688 257.734375 -147.953125 C 251.003906 -144.984375 244.273438 -141.425781 237.546875 -137.28125 L 237.546875 -88.15625 C 237.546875 -76.15625 238.972656 -65.75 241.828125 -56.9375 C 244.691406 -48.132812 249.429688 -40.789062 256.046875 -34.90625 C 262.671875 -29.019531 271.421875 -24.535156 282.296875 -21.453125 C 293.179688 -18.367188 306.695312 -16.488281 322.84375 -15.8125 L 322.84375 0 L 11.78125 0 Z M 11.78125 -15.8125 "/></g></g><g transform="translate(1769.517605, 331.826311)"><g><path d="M 21.03125 -37.1875 C 21.03125 -47.050781 24.054688 -55.234375 30.109375 -61.734375 C 36.171875 -68.242188 44.191406 -73.375 54.171875 -77.125 C 64.148438 -80.882812 75.5625 -83.519531 88.40625 -85.03125 C 101.25 -86.550781 114.457031 -87.3125 128.03125 -87.3125 C 140.03125 -87.3125 151.804688 -87.195312 163.359375 -86.96875 C 174.910156 -86.75 185.816406 -86.441406 196.078125 -86.046875 C 206.335938 -85.660156 215.671875 -85.1875 224.078125 -84.625 C 232.492188 -84.0625 239.5625 -83.441406 245.28125 -82.765625 L 245.28125 -119.28125 C 245.28125 -128.25 244.019531 -135.816406 241.5 -141.984375 C 238.976562 -148.160156 235.109375 -153.125 229.890625 -156.875 C 224.679688 -160.632812 218.035156 -163.351562 209.953125 -165.03125 C 201.878906 -166.71875 192.347656 -167.5625 181.359375 -167.5625 C 173.390625 -167.5625 165.394531 -167.445312 157.375 -167.21875 C 149.363281 -167 141.992188 -166.664062 135.265625 -166.21875 C 145.804688 -166.21875 155.453125 -165.457031 164.203125 -163.9375 C 172.953125 -162.425781 180.460938 -160.269531 186.734375 -157.46875 C 193.015625 -154.664062 197.863281 -151.269531 201.28125 -147.28125 C 204.707031 -143.300781 206.421875 -138.847656 206.421875 -133.921875 C 206.421875 -128.304688 204.398438 -123.394531 200.359375 -119.1875 C 196.328125 -114.988281 190.804688 -111.484375 183.796875 -108.671875 C 176.785156 -105.867188 168.539062 -103.738281 159.0625 -102.28125 C 149.582031 -100.820312 139.40625 -100.09375 128.53125 -100.09375 C 118.550781 -100.09375 109.046875 -101.046875 100.015625 -102.953125 C 90.984375 -104.859375 82.988281 -107.46875 76.03125 -110.78125 C 69.082031 -114.09375 63.5625 -118.019531 59.46875 -122.5625 C 55.375 -127.101562 53.328125 -132.007812 53.328125 -137.28125 C 53.328125 -142.78125 55.484375 -147.769531 59.796875 -152.25 C 64.117188 -156.738281 69.953125 -160.691406 77.296875 -164.109375 C 84.648438 -167.535156 93.175781 -170.476562 102.875 -172.9375 C 112.570312 -175.40625 122.832031 -177.453125 133.65625 -179.078125 C 144.476562 -180.710938 155.550781 -181.894531 166.875 -182.625 C 178.207031 -183.351562 189.148438 -183.71875 199.703125 -183.71875 C 215.285156 -183.71875 231.039062 -183.578125 246.96875 -183.296875 C 262.894531 -183.015625 278.257812 -182.195312 293.0625 -180.84375 C 307.875 -179.5 321.78125 -177.425781 334.78125 -174.625 C 347.789062 -171.820312 359.117188 -167.894531 368.765625 -162.84375 C 378.410156 -157.800781 386.007812 -151.46875 391.5625 -143.84375 C 397.113281 -136.21875 399.890625 -126.851562 399.890625 -115.75 L 399.890625 -75.53125 C 399.890625 -65.101562 400.59375 -56.664062 402 -50.21875 C 403.40625 -43.769531 405.335938 -38.78125 407.796875 -35.25 C 410.265625 -31.71875 413.179688 -29.359375 416.546875 -28.171875 C 419.910156 -26.992188 423.5 -26.40625 427.3125 -26.40625 C 430.789062 -26.40625 434.097656 -27.109375 437.234375 -28.515625 C 440.378906 -29.921875 443.1875 -32.023438 445.65625 -34.828125 C 448.125 -37.628906 450.140625 -41.128906 451.703125 -45.328125 C 453.273438 -49.535156 454.175781 -54.390625 454.40625 -59.890625 L 473.421875 -59.890625 C 473.421875 -49.796875 471.90625 -41.128906 468.875 -33.890625 C 465.84375 -26.660156 461.609375 -20.519531 456.171875 -15.46875 C 450.734375 -10.425781 444.253906 -6.414062 436.734375 -3.4375 C 429.222656 -0.46875 421.007812 1.851562 412.09375 3.53125 C 403.175781 5.21875 393.722656 6.3125 383.734375 6.8125 C 373.753906 7.320312 363.550781 7.578125 353.125 7.578125 C 340.445312 7.578125 328.753906 7.296875 318.046875 6.734375 C 307.335938 6.171875 297.71875 4.960938 289.1875 3.109375 C 280.664062 1.265625 273.320312 -1.394531 267.15625 -4.875 C 260.988281 -8.351562 256.109375 -13.007812 252.515625 -18.84375 C 247.804688 -15.59375 241.832031 -12.394531 234.59375 -9.25 C 227.363281 -6.113281 218.335938 -3.28125 207.515625 -0.75 C 196.691406 1.769531 183.765625 3.785156 168.734375 5.296875 C 153.710938 6.816406 136.109375 7.578125 115.921875 7.578125 C 102.679688 7.578125 90.3125 6.566406 78.8125 4.546875 C 67.320312 2.523438 57.285156 -0.390625 48.703125 -4.203125 C 40.117188 -8.015625 33.359375 -12.695312 28.421875 -18.25 C 23.492188 -23.800781 21.03125 -30.113281 21.03125 -37.1875 Z M 169.921875 -45.421875 C 169.921875 -43.179688 170.394531 -40.796875 171.34375 -38.265625 C 172.300781 -35.742188 173.875 -33.414062 176.0625 -31.28125 C 178.25 -29.15625 181.109375 -27.390625 184.640625 -25.984375 C 188.171875 -24.585938 192.570312 -23.890625 197.84375 -23.890625 C 200.875 -23.890625 204.210938 -23.941406 207.859375 -24.046875 C 211.503906 -24.160156 215.398438 -24.46875 219.546875 -24.96875 C 223.691406 -25.476562 228.0625 -26.296875 232.65625 -27.421875 C 237.257812 -28.546875 242.03125 -30.117188 246.96875 -32.140625 C 245.84375 -36.734375 245.28125 -42.226562 245.28125 -48.625 L 245.28125 -66.625 C 240.457031 -66.84375 235.578125 -66.976562 230.640625 -67.03125 C 225.710938 -67.09375 220.945312 -67.125 216.34375 -67.125 C 208.71875 -67.125 201.988281 -66.84375 196.15625 -66.28125 C 190.332031 -65.71875 185.484375 -64.625 181.609375 -63 C 177.742188 -61.375 174.828125 -59.160156 172.859375 -56.359375 C 170.898438 -53.554688 169.921875 -49.910156 169.921875 -45.421875 Z M 169.921875 -45.421875 "/></g></g></g></g></g></g><g clip-path="url(#0612b46692)"><g transform="matrix(1, 0, 0, 1, 255, 416)"><g clip-path="url(#9d4b2f70fd)"><g fill="#ffffff" fill-opacity="1"><g transform="translate(0.0678424, 225.37676)"><g><path d="M 11.421875 -10.734375 C 22.847656 -11.117188 32.328125 -12.453125 39.859375 -14.734375 C 47.398438 -17.015625 53.414062 -20.664062 57.90625 -25.6875 C 62.40625 -30.71875 65.585938 -37.328125 67.453125 -45.515625 C 69.316406 -53.703125 70.25 -63.960938 70.25 -76.296875 C 70.25 -84.597656 69.769531 -91.867188 68.8125 -98.109375 C 67.863281 -104.359375 66.378906 -109.710938 64.359375 -114.171875 C 62.347656 -118.628906 59.757812 -122.320312 56.59375 -125.25 C 53.4375 -128.175781 49.6875 -130.476562 45.34375 -132.15625 C 41.007812 -133.832031 36.023438 -135.015625 30.390625 -135.703125 C 24.753906 -136.390625 18.429688 -136.734375 11.421875 -136.734375 L 11.421875 -147.46875 L 199.5625 -147.46875 C 213.414062 -147.46875 227.210938 -147.238281 240.953125 -146.78125 C 254.703125 -146.320312 267.859375 -145.289062 280.421875 -143.6875 C 292.992188 -142.09375 304.6875 -139.710938 315.5 -136.546875 C 326.3125 -133.390625 335.675781 -129.085938 343.59375 -123.640625 C 351.507812 -118.203125 357.734375 -111.445312 362.265625 -103.375 C 366.796875 -95.300781 369.0625 -85.515625 369.0625 -74.015625 C 369.0625 -65.179688 367.441406 -57.335938 364.203125 -50.484375 C 360.972656 -43.628906 356.5 -37.628906 350.78125 -32.484375 C 345.070312 -27.347656 338.316406 -22.988281 330.515625 -19.40625 C 322.710938 -15.832031 314.222656 -12.828125 305.046875 -10.390625 C 295.867188 -7.953125 286.210938 -6.046875 276.078125 -4.671875 C 265.953125 -3.304688 255.691406 -2.28125 245.296875 -1.59375 C 234.910156 -0.914062 224.613281 -0.476562 214.40625 -0.28125 C 204.195312 -0.09375 194.445312 0 185.15625 0 L 11.421875 0 Z M 189.046875 -13.828125 C 196.273438 -14.203125 202.914062 -15.265625 208.96875 -17.015625 C 215.03125 -18.765625 220.226562 -21.8125 224.5625 -26.15625 C 228.90625 -30.5 232.296875 -36.492188 234.734375 -44.140625 C 237.171875 -51.796875 238.390625 -61.753906 238.390625 -74.015625 C 238.390625 -82.703125 237.875 -90.203125 236.84375 -96.515625 C 235.820312 -102.835938 234.320312 -108.1875 232.34375 -112.5625 C 230.363281 -116.945312 227.941406 -120.488281 225.078125 -123.1875 C 222.222656 -125.894531 218.96875 -128.007812 215.3125 -129.53125 C 211.65625 -131.050781 207.617188 -132.097656 203.203125 -132.671875 C 198.785156 -133.242188 194.066406 -133.609375 189.046875 -133.765625 Z M 189.046875 -13.828125 "/></g></g><g transform="translate(381.136544, 225.37676)"><g><path d="M 53.34375 -165.75 C 53.34375 -169.625 54.882812 -173.253906 57.96875 -176.640625 C 61.050781 -180.035156 65.238281 -182.988281 70.53125 -185.5 C 75.820312 -188.019531 82.023438 -190 89.140625 -191.4375 C 96.265625 -192.882812 103.828125 -193.609375 111.828125 -193.609375 C 119.898438 -193.609375 127.492188 -192.882812 134.609375 -191.4375 C 141.734375 -190 147.957031 -188.019531 153.28125 -185.5 C 158.613281 -182.988281 162.800781 -180.035156 165.84375 -176.640625 C 168.894531 -173.253906 170.421875 -169.625 170.421875 -165.75 C 170.421875 -161.9375 168.894531 -158.351562 165.84375 -155 C 162.800781 -151.65625 158.613281 -148.722656 153.28125 -146.203125 C 147.957031 -143.691406 141.734375 -141.710938 134.609375 -140.265625 C 127.492188 -138.816406 119.898438 -138.09375 111.828125 -138.09375 C 103.828125 -138.09375 96.265625 -138.816406 89.140625 -140.265625 C 82.023438 -141.710938 75.820312 -143.691406 70.53125 -146.203125 C 65.238281 -148.722656 61.050781 -151.65625 57.96875 -155 C 54.882812 -158.351562 53.34375 -161.9375 53.34375 -165.75 Z M 8.5625 -10.734375 C 19.070312 -11.117188 27.925781 -12.453125 35.125 -14.734375 C 42.320312 -17.015625 48.144531 -20.171875 52.59375 -24.203125 C 57.050781 -28.242188 60.269531 -33.15625 62.25 -38.9375 C 64.226562 -44.726562 65.21875 -51.359375 65.21875 -58.828125 C 65.21875 -66.441406 64.226562 -72.96875 62.25 -78.40625 C 60.269531 -83.851562 57.144531 -88.3125 52.875 -91.78125 C 48.613281 -95.25 43.148438 -97.78125 36.484375 -99.375 C 29.828125 -100.976562 21.78125 -101.78125 12.34375 -101.78125 L 12.34375 -112.515625 L 165.625 -122.796875 L 165.625 -58.828125 C 165.625 -51.359375 166.269531 -44.726562 167.5625 -38.9375 C 168.863281 -33.15625 171.320312 -28.242188 174.9375 -24.203125 C 178.550781 -20.171875 183.578125 -17.015625 190.015625 -14.734375 C 196.453125 -12.453125 204.8125 -11.117188 215.09375 -10.734375 L 215.09375 0 L 8.5625 0 Z M 8.5625 -10.734375 "/></g></g><g transform="translate(597.943616, 225.37676)"><g><path d="M 27.1875 6.390625 C 26.34375 4.566406 25.5625 1.941406 24.84375 -1.484375 C 24.125 -4.910156 23.515625 -8.488281 23.015625 -12.21875 C 22.523438 -15.945312 22.125 -19.546875 21.8125 -23.015625 C 21.507812 -26.484375 21.359375 -29.128906 21.359375 -30.953125 L 35.40625 -30.953125 C 37.46875 -27.523438 41.390625 -24.398438 47.171875 -21.578125 C 52.960938 -18.765625 60.234375 -16.367188 68.984375 -14.390625 C 77.742188 -12.410156 87.796875 -10.882812 99.140625 -9.8125 C 110.492188 -8.75 122.71875 -8.21875 135.8125 -8.21875 C 143.351562 -8.21875 149.289062 -9.207031 153.625 -11.1875 C 157.96875 -13.175781 160.140625 -15.65625 160.140625 -18.625 C 160.140625 -21.207031 158.785156 -23.28125 156.078125 -24.84375 C 153.378906 -26.40625 149.707031 -27.660156 145.0625 -28.609375 C 140.414062 -29.566406 135.007812 -30.289062 128.84375 -30.78125 C 122.675781 -31.28125 116.109375 -31.753906 109.140625 -32.203125 C 102.171875 -32.660156 95.007812 -33.210938 87.65625 -33.859375 C 80.3125 -34.515625 73.15625 -35.429688 66.1875 -36.609375 C 59.226562 -37.785156 52.660156 -39.34375 46.484375 -41.28125 C 40.316406 -43.226562 34.910156 -45.742188 30.265625 -48.828125 C 25.617188 -51.910156 21.941406 -55.679688 19.234375 -60.140625 C 16.535156 -64.597656 15.1875 -69.945312 15.1875 -76.1875 C 15.1875 -81.976562 16.328125 -87.195312 18.609375 -91.84375 C 20.898438 -96.488281 24.140625 -100.597656 28.328125 -104.171875 C 32.515625 -107.753906 37.519531 -110.835938 43.34375 -113.421875 C 49.175781 -116.015625 55.613281 -118.148438 62.65625 -119.828125 C 69.695312 -121.503906 77.253906 -122.738281 85.328125 -123.53125 C 93.398438 -124.332031 101.738281 -124.734375 110.34375 -124.734375 C 116.894531 -124.734375 123.613281 -124.597656 130.5 -124.328125 C 137.394531 -124.066406 144.226562 -123.726562 151 -123.3125 C 157.78125 -122.894531 164.367188 -122.457031 170.765625 -122 C 177.160156 -121.539062 183.140625 -121.097656 188.703125 -120.671875 C 194.265625 -120.253906 199.289062 -119.910156 203.78125 -119.640625 C 208.269531 -119.378906 211.960938 -119.25 214.859375 -119.25 C 217.597656 -119.25 220.453125 -119.34375 223.421875 -119.53125 C 226.398438 -119.726562 229.316406 -120.050781 232.171875 -120.5 C 235.023438 -120.957031 237.6875 -121.53125 240.15625 -122.21875 C 242.632812 -122.90625 244.75 -123.78125 246.5 -124.84375 C 247.34375 -123.019531 248.125 -120.566406 248.84375 -117.484375 C 249.5625 -114.398438 250.171875 -111.160156 250.671875 -107.765625 C 251.171875 -104.378906 251.570312 -101.125 251.875 -98 C 252.175781 -94.882812 252.328125 -92.335938 252.328125 -90.359375 L 238.625 -90.359375 C 237.101562 -92.867188 233.578125 -95.472656 228.046875 -98.171875 C 222.523438 -100.878906 215.5 -103.316406 206.96875 -105.484375 C 198.445312 -107.660156 188.722656 -109.453125 177.796875 -110.859375 C 166.867188 -112.265625 155.273438 -112.96875 143.015625 -112.96875 C 141.722656 -112.96875 140.066406 -112.875 138.046875 -112.6875 C 136.023438 -112.5 134.082031 -112.078125 132.21875 -111.421875 C 130.351562 -110.773438 128.734375 -109.820312 127.359375 -108.5625 C 125.992188 -107.3125 125.3125 -105.660156 125.3125 -103.609375 C 125.3125 -101.085938 126.601562 -99.023438 129.1875 -97.421875 C 131.78125 -95.828125 135.320312 -94.5 139.8125 -93.4375 C 144.300781 -92.375 149.515625 -91.476562 155.453125 -90.75 C 161.398438 -90.03125 167.722656 -89.304688 174.421875 -88.578125 C 181.128906 -87.859375 188.019531 -87.019531 195.09375 -86.0625 C 202.175781 -85.113281 209.066406 -83.894531 215.765625 -82.40625 C 222.472656 -80.925781 228.796875 -79.082031 234.734375 -76.875 C 240.671875 -74.664062 245.882812 -71.90625 250.375 -68.59375 C 254.875 -65.28125 258.414062 -61.316406 261 -56.703125 C 263.59375 -52.097656 264.890625 -46.710938 264.890625 -40.546875 C 264.890625 -33.921875 262.660156 -27.828125 258.203125 -22.265625 C 253.753906 -16.710938 247.53125 -11.898438 239.53125 -7.828125 C 231.539062 -3.753906 222.0625 -0.578125 211.09375 1.703125 C 200.125 3.992188 188.128906 5.140625 175.109375 5.140625 C 164.453125 5.140625 153.925781 4.875 143.53125 4.34375 C 133.132812 3.8125 122.984375 3.203125 113.078125 2.515625 C 103.179688 1.828125 93.550781 1.21875 84.1875 0.6875 C 74.820312 0.15625 65.875 -0.109375 57.34375 -0.109375 C 54.675781 -0.109375 51.914062 0.00390625 49.0625 0.234375 C 46.207031 0.460938 43.445312 0.84375 40.78125 1.375 C 38.113281 1.90625 35.597656 2.566406 33.234375 3.359375 C 30.878906 4.160156 28.863281 5.171875 27.1875 6.390625 Z M 27.1875 6.390625 "/></g></g><g transform="translate(877.005617, 225.37676)"><g><path d="M 14.046875 -58.71875 C 14.046875 -66.707031 15.929688 -73.878906 19.703125 -80.234375 C 23.472656 -86.597656 28.726562 -92.234375 35.46875 -97.140625 C 42.207031 -102.054688 50.222656 -106.242188 59.515625 -109.703125 C 68.804688 -113.171875 79.007812 -116.03125 90.125 -118.28125 C 101.238281 -120.53125 113.0625 -122.164062 125.59375 -123.1875 C 138.125 -124.21875 150.9375 -124.734375 164.03125 -124.734375 C 173.019531 -124.734375 181.875 -124.390625 190.59375 -123.703125 C 199.3125 -123.023438 207.550781 -122.019531 215.3125 -120.6875 C 223.082031 -119.351562 230.257812 -117.695312 236.84375 -115.71875 C 243.4375 -113.738281 249.128906 -111.488281 253.921875 -108.96875 C 258.722656 -106.457031 262.472656 -103.660156 265.171875 -100.578125 C 267.878906 -97.492188 269.234375 -94.160156 269.234375 -90.578125 C 269.234375 -86.847656 268.085938 -83.25 265.796875 -79.78125 C 263.515625 -76.320312 260.203125 -73.238281 255.859375 -70.53125 C 251.523438 -67.832031 246.175781 -65.660156 239.8125 -64.015625 C 233.457031 -62.378906 226.207031 -61.5625 218.0625 -61.5625 C 210.363281 -61.5625 203.144531 -62.171875 196.40625 -63.390625 C 189.675781 -64.609375 183.832031 -66.285156 178.875 -68.421875 C 173.925781 -70.554688 170.023438 -73.085938 167.171875 -76.015625 C 164.316406 -78.953125 162.890625 -82.171875 162.890625 -85.671875 C 162.890625 -88.640625 163.859375 -91.550781 165.796875 -94.40625 C 167.742188 -97.257812 170.640625 -99.8125 174.484375 -102.0625 C 178.328125 -104.3125 183.101562 -106.117188 188.8125 -107.484375 C 194.53125 -108.859375 201.195312 -109.546875 208.8125 -109.546875 C 204.46875 -110.765625 199.953125 -111.640625 195.265625 -112.171875 C 190.585938 -112.703125 185.847656 -112.96875 181.046875 -112.96875 C 174.117188 -112.96875 167.398438 -112.1875 160.890625 -110.625 C 154.378906 -109.0625 148.59375 -106.429688 143.53125 -102.734375 C 138.46875 -99.046875 134.410156 -94.132812 131.359375 -88 C 128.316406 -81.875 126.796875 -74.242188 126.796875 -65.109375 C 126.796875 -59.171875 127.648438 -53.78125 129.359375 -48.9375 C 131.078125 -44.101562 133.457031 -39.78125 136.5 -35.96875 C 139.550781 -32.164062 143.148438 -28.851562 147.296875 -26.03125 C 151.441406 -23.21875 155.929688 -20.894531 160.765625 -19.0625 C 165.609375 -17.238281 170.710938 -15.867188 176.078125 -14.953125 C 181.453125 -14.046875 186.84375 -13.59375 192.25 -13.59375 C 201 -13.59375 209.445312 -14.351562 217.59375 -15.875 C 225.75 -17.394531 232.945312 -19.46875 239.1875 -22.09375 C 245.4375 -24.726562 250.425781 -27.773438 254.15625 -31.234375 C 257.882812 -34.703125 259.75 -38.414062 259.75 -42.375 L 273.796875 -42.375 C 273.796875 -37.039062 272.441406 -32.164062 269.734375 -27.75 C 267.035156 -23.332031 263.25 -19.375 258.375 -15.875 C 253.507812 -12.375 247.707031 -9.304688 240.96875 -6.671875 C 234.226562 -4.046875 226.835938 -1.859375 218.796875 -0.109375 C 210.765625 1.640625 202.195312 2.953125 193.09375 3.828125 C 184 4.703125 174.65625 5.140625 165.0625 5.140625 C 151.28125 5.140625 137.988281 4.71875 125.1875 3.875 C 112.394531 3.039062 100.398438 1.65625 89.203125 -0.28125 C 78.015625 -2.226562 67.8125 -4.800781 58.59375 -8 C 49.382812 -11.195312 41.484375 -15.15625 34.890625 -19.875 C 28.304688 -24.59375 23.1875 -30.148438 19.53125 -36.546875 C 15.875 -42.941406 14.046875 -50.332031 14.046875 -58.71875 Z M 14.046875 -58.71875 "/></g></g><g transform="translate(1160.979475, 225.37676)"><g><path d="M 12.90625 -59.734375 C 12.90625 -70.773438 16.195312 -80.390625 22.78125 -88.578125 C 29.375 -96.765625 38.6875 -103.539062 50.71875 -108.90625 C 62.75 -114.28125 77.175781 -118.28125 94 -120.90625 C 110.832031 -123.53125 129.53125 -124.84375 150.09375 -124.84375 C 170.582031 -124.84375 189.257812 -123.53125 206.125 -120.90625 C 222.988281 -118.28125 237.414062 -114.28125 249.40625 -108.90625 C 261.40625 -103.539062 270.695312 -96.765625 277.28125 -88.578125 C 283.875 -80.390625 287.171875 -70.773438 287.171875 -59.734375 C 287.171875 -48.773438 283.875 -39.21875 277.28125 -31.0625 C 270.695312 -22.914062 261.40625 -16.15625 249.40625 -10.78125 C 237.414062 -5.414062 222.988281 -1.421875 206.125 1.203125 C 189.257812 3.828125 170.582031 5.140625 150.09375 5.140625 C 129.53125 5.140625 110.832031 3.828125 94 1.203125 C 77.175781 -1.421875 62.75 -5.414062 50.71875 -10.78125 C 38.6875 -16.15625 29.375 -22.914062 22.78125 -31.0625 C 16.195312 -39.21875 12.90625 -48.773438 12.90625 -59.734375 Z M 126.796875 -59.734375 C 126.796875 -52.660156 127.328125 -45.921875 128.390625 -39.515625 C 129.453125 -33.117188 130.992188 -27.503906 133.015625 -22.671875 C 135.035156 -17.835938 137.472656 -13.992188 140.328125 -11.140625 C 143.179688 -8.285156 146.4375 -6.859375 150.09375 -6.859375 C 153.675781 -6.859375 156.894531 -8.285156 159.75 -11.140625 C 162.601562 -13.992188 165.035156 -17.835938 167.046875 -22.671875 C 169.066406 -27.503906 170.609375 -33.117188 171.671875 -39.515625 C 172.742188 -45.921875 173.28125 -52.660156 173.28125 -59.734375 C 173.28125 -66.898438 172.742188 -73.695312 171.671875 -80.125 C 170.609375 -86.5625 169.066406 -92.21875 167.046875 -97.09375 C 165.035156 -101.96875 162.601562 -105.847656 159.75 -108.734375 C 156.894531 -111.628906 153.675781 -113.078125 150.09375 -113.078125 C 146.4375 -113.078125 143.179688 -111.628906 140.328125 -108.734375 C 137.472656 -105.847656 135.035156 -101.96875 133.015625 -97.09375 C 130.992188 -92.21875 129.453125 -86.5625 128.390625 -80.125 C 127.328125 -73.695312 126.796875 -66.898438 126.796875 -59.734375 Z M 126.796875 -59.734375 "/></g></g><g transform="translate(1461.059654, 225.37676)"><g><path d="M 27.1875 6.390625 C 26.34375 4.566406 25.5625 1.941406 24.84375 -1.484375 C 24.125 -4.910156 23.515625 -8.488281 23.015625 -12.21875 C 22.523438 -15.945312 22.125 -19.546875 21.8125 -23.015625 C 21.507812 -26.484375 21.359375 -29.128906 21.359375 -30.953125 L 35.40625 -30.953125 C 37.46875 -27.523438 41.390625 -24.398438 47.171875 -21.578125 C 52.960938 -18.765625 60.234375 -16.367188 68.984375 -14.390625 C 77.742188 -12.410156 87.796875 -10.882812 99.140625 -9.8125 C 110.492188 -8.75 122.71875 -8.21875 135.8125 -8.21875 C 143.351562 -8.21875 149.289062 -9.207031 153.625 -11.1875 C 157.96875 -13.175781 160.140625 -15.65625 160.140625 -18.625 C 160.140625 -21.207031 158.785156 -23.28125 156.078125 -24.84375 C 153.378906 -26.40625 149.707031 -27.660156 145.0625 -28.609375 C 140.414062 -29.566406 135.007812 -30.289062 128.84375 -30.78125 C 122.675781 -31.28125 116.109375 -31.753906 109.140625 -32.203125 C 102.171875 -32.660156 95.007812 -33.210938 87.65625 -33.859375 C 80.3125 -34.515625 73.15625 -35.429688 66.1875 -36.609375 C 59.226562 -37.785156 52.660156 -39.34375 46.484375 -41.28125 C 40.316406 -43.226562 34.910156 -45.742188 30.265625 -48.828125 C 25.617188 -51.910156 21.941406 -55.679688 19.234375 -60.140625 C 16.535156 -64.597656 15.1875 -69.945312 15.1875 -76.1875 C 15.1875 -81.976562 16.328125 -87.195312 18.609375 -91.84375 C 20.898438 -96.488281 24.140625 -100.597656 28.328125 -104.171875 C 32.515625 -107.753906 37.519531 -110.835938 43.34375 -113.421875 C 49.175781 -116.015625 55.613281 -118.148438 62.65625 -119.828125 C 69.695312 -121.503906 77.253906 -122.738281 85.328125 -123.53125 C 93.398438 -124.332031 101.738281 -124.734375 110.34375 -124.734375 C 116.894531 -124.734375 123.613281 -124.597656 130.5 -124.328125 C 137.394531 -124.066406 144.226562 -123.726562 151 -123.3125 C 157.78125 -122.894531 164.367188 -122.457031 170.765625 -122 C 177.160156 -121.539062 183.140625 -121.097656 188.703125 -120.671875 C 194.265625 -120.253906 199.289062 -119.910156 203.78125 -119.640625 C 208.269531 -119.378906 211.960938 -119.25 214.859375 -119.25 C 217.597656 -119.25 220.453125 -119.34375 223.421875 -119.53125 C 226.398438 -119.726562 229.316406 -120.050781 232.171875 -120.5 C 235.023438 -120.957031 237.6875 -121.53125 240.15625 -122.21875 C 242.632812 -122.90625 244.75 -123.78125 246.5 -124.84375 C 247.34375 -123.019531 248.125 -120.566406 248.84375 -117.484375 C 249.5625 -114.398438 250.171875 -111.160156 250.671875 -107.765625 C 251.171875 -104.378906 251.570312 -101.125 251.875 -98 C 252.175781 -94.882812 252.328125 -92.335938 252.328125 -90.359375 L 238.625 -90.359375 C 237.101562 -92.867188 233.578125 -95.472656 228.046875 -98.171875 C 222.523438 -100.878906 215.5 -103.316406 206.96875 -105.484375 C 198.445312 -107.660156 188.722656 -109.453125 177.796875 -110.859375 C 166.867188 -112.265625 155.273438 -112.96875 143.015625 -112.96875 C 141.722656 -112.96875 140.066406 -112.875 138.046875 -112.6875 C 136.023438 -112.5 134.082031 -112.078125 132.21875 -111.421875 C 130.351562 -110.773438 128.734375 -109.820312 127.359375 -108.5625 C 125.992188 -107.3125 125.3125 -105.660156 125.3125 -103.609375 C 125.3125 -101.085938 126.601562 -99.023438 129.1875 -97.421875 C 131.78125 -95.828125 135.320312 -94.5 139.8125 -93.4375 C 144.300781 -92.375 149.515625 -91.476562 155.453125 -90.75 C 161.398438 -90.03125 167.722656 -89.304688 174.421875 -88.578125 C 181.128906 -87.859375 188.019531 -87.019531 195.09375 -86.0625 C 202.175781 -85.113281 209.066406 -83.894531 215.765625 -82.40625 C 222.472656 -80.925781 228.796875 -79.082031 234.734375 -76.875 C 240.671875 -74.664062 245.882812 -71.90625 250.375 -68.59375 C 254.875 -65.28125 258.414062 -61.316406 261 -56.703125 C 263.59375 -52.097656 264.890625 -46.710938 264.890625 -40.546875 C 264.890625 -33.921875 262.660156 -27.828125 258.203125 -22.265625 C 253.753906 -16.710938 247.53125 -11.898438 239.53125 -7.828125 C 231.539062 -3.753906 222.0625 -0.578125 211.09375 1.703125 C 200.125 3.992188 188.128906 5.140625 175.109375 5.140625 C 164.453125 5.140625 153.925781 4.875 143.53125 4.34375 C 133.132812 3.8125 122.984375 3.203125 113.078125 2.515625 C 103.179688 1.828125 93.550781 1.21875 84.1875 0.6875 C 74.820312 0.15625 65.875 -0.109375 57.34375 -0.109375 C 54.675781 -0.109375 51.914062 0.00390625 49.0625 0.234375 C 46.207031 0.460938 43.445312 0.84375 40.78125 1.375 C 38.113281 1.90625 35.597656 2.566406 33.234375 3.359375 C 30.878906 4.160156 28.863281 5.171875 27.1875 6.390625 Z M 27.1875 6.390625 "/></g></g></g></g></g></g></g></g></g></svg>