<svg xmlns="http://www.w3.org/2000/svg" xmlns:xlink="http://www.w3.org/1999/xlink" width="3000" zoomAndPan="magnify" viewBox="0 0 2250 2250.000011" height="3000" preserveAspectRatio="xMidYMid meet" version="1.0"><defs><clipPath id="96babaa2d5"><path d="M 47.355469 721 L 2027 721 L 2027 1229 L 47.355469 1229 Z M 47.355469 721 " clip-rule="nonzero"/></clipPath><clipPath id="9b22fb102c"><path d="M 243 1273 L 2202.644531 1273 L 2202.644531 1791 L 243 1791 Z M 243 1273 " clip-rule="nonzero"/></clipPath></defs><path fill="#ffffff" d="M 975.5625 0.757812 C 697.1875 11.9375 431.109375 61.875 285.398438 130.816406 C 228.382812 157.648438 187.386719 190.070312 171.738281 220.253906 C 161.675781 239.257812 161.300781 267.582031 170.617188 287.332031 C 180.679688 308.574219 218.691406 343.976562 254.09375 365.21875 C 369.246094 433.414062 600.296875 491.921875 841.40625 514.28125 C 990.46875 528.441406 1187.234375 532.167969 1329.960938 523.972656 C 1606.847656 507.945312 1844.605469 459.5 1981.746094 390.558594 C 2065.21875 349.195312 2110.3125 303.355469 2110.3125 260.5 C 2109.9375 144.605469 1816.285156 43.242188 1372.445312 5.601562 C 1326.234375 1.875 1040.035156 -1.851562 975.5625 0.757812 Z M 1752.929688 83.859375 C 1875.910156 115.164062 1961.621094 151.683594 1994.789062 187.085938 L 2007.832031 200.875 L 1991.433594 188.949219 C 1982.488281 182.617188 1973.171875 177.398438 1970.9375 177.769531 C 1968.703125 177.769531 1970.566406 180.378906 1975.410156 183.734375 C 1979.882812 186.714844 1983.609375 191.1875 1983.609375 193.050781 C 1983.609375 194.914062 1979.136719 193.421875 1973.546875 189.324219 C 1967.582031 185.222656 1957.148438 179.261719 1950.066406 175.535156 L 1937.023438 169.199219 L 1950.066406 182.988281 L 1963.113281 196.777344 L 1941.496094 184.851562 C 1929.570312 178.144531 1918.765625 173.671875 1917.648438 175.160156 C 1916.15625 176.28125 1916.902344 177.398438 1919.136719 177.398438 C 1921.375 177.398438 1925.84375 181.496094 1929.199219 186.34375 L 1935.160156 195.660156 L 1919.136719 186.34375 C 1898.640625 174.789062 1894.542969 175.160156 1905.722656 187.085938 L 1914.664062 196.777344 L 1901.621094 188.949219 C 1882.988281 177.769531 1880.753906 179.261719 1893.050781 194.914062 C 1912.058594 219.507812 1911.3125 221 1889.699219 201.25 C 1850.566406 165.472656 1773.800781 131.933594 1671.320312 104.730469 C 1611.320312 89.078125 1598.648438 82.742188 1648.214844 93.550781 C 1674.300781 99.140625 1682.5 98.023438 1662.746094 92.058594 C 1650.449219 87.960938 1650.449219 87.960938 1666.847656 89.449219 L 1683.617188 90.941406 L 1668.710938 85.722656 C 1654.921875 80.878906 1654.921875 80.507812 1666.101562 82.371094 C 1672.808594 83.113281 1686.226562 83.113281 1695.542969 81.625 L 1713.429688 79.386719 L 1700.386719 74.542969 C 1676.164062 65.972656 1694.796875 69.328125 1752.929688 83.859375 Z M 1679.890625 76.78125 C 1684.734375 78.644531 1685.105469 80.132812 1681.753906 80.132812 C 1678.773438 80.132812 1672.808594 78.644531 1668.710938 76.78125 C 1663.867188 74.917969 1663.492188 73.425781 1666.847656 73.425781 C 1669.828125 73.425781 1675.789062 74.917969 1679.890625 76.78125 Z M 1604.613281 86.839844 C 1602.003906 87.585938 1597.53125 87.585938 1595.296875 86.839844 C 1592.6875 85.722656 1594.550781 84.976562 1599.769531 84.976562 C 1604.984375 84.976562 1606.847656 85.722656 1604.613281 86.839844 Z M 1656.785156 108.082031 C 1755.167969 131.933594 1828.207031 163.238281 1856.15625 193.796875 C 1873.671875 212.800781 1877.398438 221.371094 1861.746094 206.464844 C 1855.785156 201.25 1845.351562 193.796875 1838.269531 190.441406 L 1825.226562 184.105469 L 1836.40625 196.03125 L 1847.585938 208.328125 L 1834.171875 198.640625 C 1819.265625 187.460938 1812.558594 185.597656 1819.636719 194.167969 C 1823.738281 199.011719 1822.617188 199.011719 1810.320312 193.796875 C 1801.75 190.441406 1797.652344 189.695312 1799.140625 192.675781 C 1801.003906 195.660156 1799.515625 196.03125 1793.550781 194.167969 L 1784.980469 191.558594 L 1802.121094 219.136719 L 1784.234375 205.347656 C 1749.949219 179.261719 1699.269531 157.648438 1605.359375 128.578125 C 1551.695312 111.808594 1548.714844 109.945312 1586.726562 116.28125 L 1597.90625 117.773438 L 1586.726562 112.554688 L 1575.546875 106.964844 L 1588.214844 109.203125 C 1596.414062 110.691406 1600.140625 109.945312 1598.648438 107.710938 C 1597.160156 105.101562 1601.632812 104.730469 1612.066406 106.964844 C 1633.679688 110.691406 1634.054688 108.082031 1612.4375 101.375 C 1580.390625 91.6875 1602.75 95.039062 1656.785156 108.082031 Z M 1575.171875 126.714844 C 1657.53125 146.839844 1729.828125 177.398438 1752.558594 201.992188 C 1762.621094 212.800781 1763.367188 214.664062 1756.285156 209.820312 C 1751.066406 206.464844 1741.007812 200.128906 1733.925781 195.660156 L 1720.882812 187.832031 L 1730.199219 198.265625 L 1739.515625 208.703125 L 1730.199219 203.113281 C 1724.980469 199.757812 1717.527344 196.03125 1713.800781 194.914062 C 1707.839844 192.675781 1707.46875 193.050781 1711.566406 197.894531 C 1717.15625 204.230469 1714.175781 204.976562 1703.742188 199.757812 C 1698.894531 196.777344 1696.660156 197.148438 1696.660156 199.757812 C 1696.660156 201.992188 1691.816406 201.25 1684.734375 197.523438 L 1672.4375 191.1875 L 1683.617188 205.71875 C 1694.050781 219.507812 1694.050781 219.882812 1685.480469 213.546875 C 1658.277344 194.167969 1643.742188 185.96875 1617.65625 175.160156 C 1590.078125 163.238281 1530.828125 143.859375 1501.011719 136.777344 C 1488.714844 133.796875 1491.695312 133.425781 1517.78125 134.542969 C 1537.90625 135.660156 1546.851562 134.914062 1542.007812 132.679688 C 1535.671875 130.070312 1536.042969 129.324219 1545.734375 128.953125 L 1556.914062 128.207031 L 1544.988281 124.851562 C 1538.28125 122.988281 1532.691406 120.382812 1532.691406 119.636719 C 1532.691406 116.65625 1534.554688 117.027344 1575.171875 126.714844 Z M 1481.636719 131.5625 C 1479.027344 132.304688 1474.554688 132.304688 1472.320312 131.5625 C 1469.710938 130.441406 1471.574219 129.699219 1476.789062 129.699219 C 1482.007812 129.699219 1483.871094 130.441406 1481.636719 131.5625 Z M 1512.191406 146.09375 C 1547.96875 155.039062 1592.316406 170.316406 1615.421875 181.496094 C 1635.542969 191.933594 1664.984375 213.917969 1662.003906 216.898438 C 1661.257812 218.019531 1652.3125 213.917969 1642.25 208.328125 C 1626.972656 200.128906 1625.109375 199.757812 1630.699219 205.71875 C 1640.386719 216.898438 1638.523438 219.882812 1627.34375 211.308594 C 1614.675781 201.621094 1609.457031 201.25 1614.675781 210.9375 C 1618.402344 218.019531 1618.027344 218.019531 1604.984375 210.191406 L 1591.195312 202.367188 L 1596.042969 210.9375 L 1600.886719 219.882812 L 1591.195312 213.546875 C 1578.152344 204.976562 1570.699219 205.347656 1578.527344 213.917969 C 1590.078125 226.589844 1584.863281 225.84375 1567.347656 212.429688 C 1546.105469 196.402344 1530.453125 188.949219 1473.0625 169.570312 C 1449.585938 161.375 1435.796875 155.785156 1442.878906 156.902344 C 1449.960938 158.019531 1461.882812 157.648438 1468.964844 156.527344 C 1480.515625 154.292969 1481.261719 153.546875 1474.925781 150.566406 C 1470.082031 148.703125 1472.691406 148.332031 1482.378906 149.820312 C 1500.640625 152.429688 1498.03125 149.074219 1476.417969 141.996094 L 1460.019531 136.777344 L 1474.925781 139.015625 C 1483.125 140.132812 1499.894531 143.113281 1512.191406 146.09375 Z M 1463.003906 153.921875 C 1460.394531 154.664062 1455.921875 154.664062 1453.6875 153.921875 C 1451.078125 152.800781 1452.941406 152.058594 1458.15625 152.058594 C 1463.375 152.058594 1465.238281 152.800781 1463.003906 153.921875 Z M 1250.585938 171.808594 C 1359.03125 184.480469 1432.070312 212.800781 1432.070312 242.242188 C 1432.070312 260.5 1394.804688 282.859375 1342.261719 296.277344 C 1289.714844 309.691406 1222.636719 316.027344 1135.808594 316.027344 C 1012.457031 316.398438 917.054688 301.121094 864.882812 273.542969 C 811.21875 245.222656 828.363281 215.035156 910.722656 191.1875 C 938.671875 182.988281 994.941406 172.554688 1033.324219 168.828125 C 1071.335938 164.726562 1207.359375 166.589844 1250.585938 171.808594 Z M 1810.320312 199.757812 C 1811.4375 201.621094 1811.066406 203.484375 1808.832031 203.484375 C 1806.96875 203.484375 1803.984375 201.621094 1802.867188 199.757812 C 1801.75 197.523438 1802.121094 196.03125 1804.359375 196.03125 C 1806.222656 196.03125 1809.203125 197.523438 1810.320312 199.757812 Z M 735.199219 299.628906 C 748.613281 305.964844 778.800781 316.027344 802.277344 322.734375 C 825.753906 329.441406 845.878906 335.777344 846.996094 336.523438 C 848.859375 338.386719 825.007812 335.40625 807.867188 331.679688 C 803.765625 330.933594 805.628906 332.796875 811.59375 335.777344 L 822.773438 341.367188 L 807.867188 339.503906 C 796.3125 338.015625 794.824219 338.386719 800.414062 341.367188 C 806.003906 343.976562 803.394531 344.347656 790.351562 342.859375 C 769.855469 340.25 766.875 343.230469 784.761719 348.820312 L 796.6875 352.546875 L 785.507812 351.058594 C 779.542969 350.3125 767.621094 348.449219 759.421875 347.332031 C 746.75 345.46875 748.242188 346.585938 768.738281 354.039062 C 800.039062 365.964844 793.332031 365.964844 749.730469 354.785156 C 678.554688 336.152344 625.636719 314.535156 609.984375 297.765625 C 596.941406 283.605469 599.175781 279.878906 614.457031 289.195312 C 628.617188 298.140625 634.953125 297.023438 626.753906 286.960938 C 622.65625 282.117188 624.890625 282.488281 637.1875 288.824219 C 656.941406 298.886719 659.921875 298.886719 650.976562 288.824219 L 643.898438 280.625 L 659.546875 288.824219 C 680.042969 299.257812 682.652344 298.886719 671.472656 286.960938 L 662.53125 277.269531 L 678.179688 285.097656 C 698.304688 295.160156 700.167969 295.160156 690.851562 283.234375 C 678.925781 267.953125 681.535156 265.34375 697.1875 277.644531 C 704.640625 283.980469 721.78125 293.667969 735.199219 299.628906 Z M 515.703125 324.226562 C 541.042969 336.894531 582.035156 354.039062 606.628906 361.492188 C 631.226562 369.316406 663.273438 379.753906 677.4375 384.597656 C 703.523438 393.539062 701.660156 393.914062 662.53125 387.949219 C 654.332031 386.460938 653.214844 386.832031 658.429688 389.070312 C 665.511719 392.050781 665.136719 392.421875 656.941406 394.660156 C 651.722656 395.777344 643.523438 396.148438 638.304688 395.402344 C 631.597656 393.914062 632.714844 395.03125 642.035156 399.128906 L 655.078125 404.71875 L 642.035156 402.484375 C 634.953125 401.367188 625.636719 399.875 621.535156 398.757812 C 617.4375 398.011719 620.792969 400.621094 628.988281 404.71875 C 637.1875 408.820312 646.132812 412.171875 649.113281 412.171875 C 652.09375 412.171875 653.585938 412.917969 652.46875 414.035156 C 650.230469 416.644531 577.5625 398.011719 526.507812 381.988281 C 474.710938 365.589844 417.320312 336.523438 397.570312 317.144531 C 376.328125 295.53125 376.699219 289.570312 398.3125 304.101562 C 416.203125 316.773438 424.027344 316.773438 412.847656 304.101562 C 409.121094 300.003906 408.003906 296.648438 410.238281 296.648438 C 412.476562 296.648438 415.082031 298.140625 416.203125 300.003906 C 417.320312 301.867188 423.65625 305.21875 429.617188 307.457031 C 440.050781 310.808594 440.796875 310.808594 436.699219 303.730469 C 432.972656 296.277344 432.972656 296.277344 444.152344 302.238281 C 457.566406 308.945312 458.683594 306.339844 448.25 292.921875 C 436.699219 278.390625 439.679688 276.527344 454.957031 289.195312 C 462.785156 295.53125 489.988281 311.183594 515.703125 324.226562 Z M 624.519531 319.007812 C 641.289062 326.835938 681.164062 341.367188 713.210938 351.058594 C 745.632812 361.121094 771.347656 369.691406 770.972656 370.4375 C 770.226562 371.179688 758.304688 368.945312 744.886719 365.589844 C 714.328125 358.882812 706.503906 358.882812 724.019531 365.964844 L 737.0625 371.179688 L 703.523438 367.453125 L 716.566406 373.042969 C 728.117188 377.890625 728.492188 378.632812 718.800781 376.769531 C 690.480469 371.179688 686.007812 371.554688 705.386719 378.632812 C 742.652344 391.304688 714.328125 386.460938 655.449219 369.691406 C 568.246094 344.347656 502.285156 313.417969 487.378906 290.3125 C 480.671875 280.253906 480.671875 280.253906 495.207031 292.175781 C 511.230469 305.59375 524.644531 308.945312 514.210938 297.394531 C 504.894531 287.332031 506.757812 282.859375 516.445312 291.804688 C 520.917969 295.902344 528.746094 301.492188 533.960938 304.101562 L 542.90625 308.945312 L 536.199219 298.511719 L 529.117188 288.078125 L 540.667969 295.902344 C 554.085938 305.59375 563.402344 307.082031 556.320312 298.511719 C 550.359375 291.433594 555.949219 291.433594 565.265625 298.511719 C 577.5625 307.828125 579.800781 304.847656 570.855469 289.941406 L 562.285156 276.152344 L 578.308594 290.6875 C 587.253906 298.511719 608.121094 311.554688 624.519531 319.007812 Z M 369.992188 317.890625 C 420.671875 351.058594 488.496094 379.378906 577.5625 404.71875 C 608.867188 413.664062 633.835938 421.488281 633.460938 422.234375 C 632.714844 422.609375 619.300781 420.746094 603.277344 417.761719 C 568.621094 411.054688 565.265625 411.054688 582.40625 417.761719 L 595.449219 422.980469 L 574.953125 421.117188 C 559.304688 419.625 555.949219 420 560.046875 423.351562 C 564.519531 426.335938 562.285156 427.078125 550.730469 425.589844 C 538.804688 424.097656 541.414062 425.589844 561.910156 432.296875 C 598.433594 444.96875 589.488281 443.847656 530.609375 429.316406 C 409.867188 398.757812 324.15625 361.121094 282.042969 320.5 C 261.921875 300.75 262.664062 294.785156 283.160156 310.808594 C 290.988281 316.773438 301.421875 323.109375 306.640625 324.597656 L 315.957031 327.207031 L 297.324219 307.082031 L 312.976562 314.910156 C 333.097656 324.972656 334.214844 324.597656 326.390625 313.046875 L 320.054688 303.355469 L 333.097656 311.183594 C 351.359375 322.363281 353.59375 320.871094 340.550781 305.21875 C 325.273438 286.960938 325.644531 280.996094 341.296875 295.53125 C 347.632812 301.492188 360.675781 311.554688 369.992188 317.890625 Z M 737.808594 388.324219 C 736.6875 389.441406 733.335938 389.8125 730.726562 388.695312 C 727.746094 387.578125 728.863281 386.460938 732.960938 386.460938 C 737.0625 386.085938 739.296875 387.207031 737.808594 388.324219 Z M 737.808594 388.324219 " fill-opacity="1" fill-rule="nonzero"/><path fill="#ffffff" d="M 1113.449219 231.804688 C 1095.1875 236.277344 1094.441406 237.394531 1101.894531 242.984375 C 1106.738281 246.339844 1118.292969 248.203125 1133.570312 248.203125 C 1159.65625 248.203125 1171.957031 243.730469 1165.621094 237.394531 C 1161.148438 232.925781 1124.628906 229.199219 1113.449219 231.804688 Z M 1113.449219 231.804688 " fill-opacity="1" fill-rule="nonzero"/><path fill="#ffffff" d="M 153.847656 311.554688 C 149.75 317.519531 141.925781 331.679688 136.707031 343.230469 C 128.507812 361.121094 127.019531 368.199219 128.507812 390.933594 C 130.371094 429.6875 143.042969 454.65625 179.191406 490.433594 C 269 579.871094 430.363281 646.578125 673.710938 695.023438 C 1061.648438 772.164062 1579.644531 746.820312 1887.460938 635.398438 C 1940.75 616.019531 2027.582031 574.652344 2058.140625 553.785156 C 2094.660156 528.816406 2133.789062 489.6875 2147.949219 463.601562 C 2159.128906 442.730469 2160.621094 437.140625 2160.25 412.171875 C 2160.25 378.632812 2152.796875 360.375 2127.082031 329.441406 L 2109.566406 308.203125 L 2089.070312 330.1875 C 1991.433594 435.652344 1696.660156 516.144531 1338.90625 534.777344 C 1204.375 541.859375 1158.539062 542.605469 1048.605469 538.878906 C 877.554688 533.289062 732.960938 518.007812 601.039062 491.921875 C 389.742188 450.183594 247.015625 392.796875 182.917969 323.109375 L 161.675781 300.375 Z M 1801.75 515.398438 C 1817.773438 532.167969 1833.054688 556.394531 1830.070312 559.746094 C 1828.953125 560.492188 1823.363281 554.53125 1817.402344 546.332031 C 1806.222656 531.050781 1798.023438 526.207031 1804.730469 538.503906 C 1811.8125 552.292969 1808.457031 553.785156 1796.90625 541.859375 C 1789.078125 533.289062 1786.84375 532.167969 1789.453125 537.761719 C 1796.160156 551.175781 1794.296875 551.921875 1782 540.367188 L 1770.820312 529.5625 L 1774.546875 539.996094 C 1780.507812 556.019531 1779.390625 556.765625 1768.957031 544.46875 L 1759.640625 533.289062 L 1761.503906 543.351562 C 1767.835938 574.28125 1767.835938 574.652344 1759.640625 558.628906 C 1755.539062 549.683594 1745.476562 535.523438 1737.652344 526.953125 L 1723.492188 510.929688 L 1746.222656 504.59375 C 1780.507812 495.648438 1782.742188 496.023438 1801.75 515.398438 Z M 1721.628906 524.714844 C 1733.925781 538.132812 1741.378906 550.429688 1741.378906 558.257812 C 1741.378906 560.863281 1738.398438 557.882812 1734.671875 551.921875 C 1730.570312 545.585938 1724.980469 538.503906 1721.628906 535.523438 C 1715.664062 531.050781 1715.664062 531.425781 1720.882812 543.722656 C 1729.082031 563.472656 1727.964844 564.964844 1716.410156 548.941406 C 1706.347656 534.40625 1697.40625 529.933594 1704.113281 542.230469 C 1711.566406 556.765625 1707.46875 558.628906 1696.660156 546.332031 L 1685.480469 533.289062 L 1689.207031 544.09375 C 1694.421875 558.257812 1691.816406 560.121094 1683.988281 548.195312 C 1676.535156 537.015625 1668.335938 535.152344 1674.300781 545.957031 C 1676.164062 550.058594 1678.027344 557.136719 1678.027344 561.984375 C 1678.027344 568.691406 1676.535156 567.199219 1670.199219 555.273438 C 1666.101562 546.703125 1659.394531 536.640625 1654.921875 532.914062 C 1647.46875 525.835938 1647.839844 525.835938 1676.535156 519.871094 C 1692.933594 516.519531 1706.722656 513.535156 1708.210938 513.164062 C 1709.332031 513.164062 1715.292969 518.382812 1721.628906 524.714844 Z M 1647.097656 542.230469 C 1651.941406 549.3125 1655.667969 558.257812 1655.667969 562.726562 C 1655.667969 569.0625 1654.550781 568.691406 1648.214844 558.257812 C 1639.269531 543.722656 1631.816406 541.859375 1637.035156 556.019531 C 1642.625 570.554688 1641.507812 571.671875 1633.679688 559 C 1623.246094 541.859375 1618.027344 539.996094 1622.128906 554.53125 L 1625.480469 566.828125 L 1614.300781 553.785156 L 1602.75 540.742188 L 1604.984375 553.785156 L 1607.222656 566.828125 L 1598.648438 556.394531 C 1587.84375 543.722656 1585.234375 543.722656 1587.84375 556.394531 L 1589.707031 566.828125 L 1580.015625 555.648438 L 1570.328125 544.46875 L 1572.191406 561.238281 C 1573.683594 575.027344 1573.308594 576.515625 1569.957031 569.0625 C 1568.09375 564.21875 1562.875 555.648438 1558.402344 549.683594 C 1553.1875 541.859375 1552.066406 538.878906 1555.792969 538.503906 C 1558.402344 538.503906 1574.054688 536.269531 1590.453125 533.289062 C 1631.816406 526.578125 1637.035156 527.324219 1647.097656 542.230469 Z M 940.160156 553.785156 C 1061.273438 563.101562 1282.636719 561.984375 1374.308594 551.546875 C 1392.941406 549.3125 1393.316406 549.3125 1400.394531 562.726562 C 1407.847656 576.144531 1407.847656 576.515625 1400.394531 589.933594 C 1386.234375 616.019531 1326.234375 639.867188 1243.132812 652.910156 C 1186.117188 661.855469 1032.207031 661.855469 976.308594 652.910156 C 897.675781 640.613281 834.699219 616.390625 820.539062 592.914062 C 811.21875 577.632812 811.59375 571.300781 823.519531 557.511719 L 833.582031 545.585938 L 863.394531 547.820312 C 880.164062 548.941406 914.449219 551.921875 940.160156 553.785156 Z M 667.746094 621.980469 C 685.261719 636.515625 709.113281 649.929688 740.042969 662.601562 C 754.949219 668.5625 762.773438 672.664062 757.558594 671.542969 C 719.917969 664.835938 721.410156 664.835938 731.472656 670.800781 C 741.90625 677.132812 740.042969 678.253906 727 673.40625 C 710.976562 667.816406 695.695312 664.835938 701.660156 669.308594 C 716.191406 678.996094 619.300781 660.363281 597.6875 648.8125 C 583.898438 641.730469 564.894531 620.863281 560.046875 607.820312 C 555.949219 597.011719 556.320312 597.011719 567.5 610.429688 C 581.664062 627.199219 588.742188 629.0625 580.542969 613.410156 C 572.347656 597.386719 573.464844 597.011719 588.371094 612.664062 C 595.824219 620.117188 600.667969 623.472656 599.550781 619.746094 C 598.433594 616.390625 596.195312 610.429688 595.078125 606.703125 C 593.214844 601.484375 593.960938 601.855469 599.921875 607.820312 C 603.648438 612.292969 609.984375 617.882812 613.710938 620.863281 C 620.792969 626.453125 620.792969 626.082031 614.082031 613.410156 L 607.375 600.367188 L 616.691406 608.566406 C 621.535156 613.410156 626.753906 617.136719 627.871094 617.136719 C 628.988281 617.136719 629.363281 613.410156 628.246094 608.566406 C 626.382812 601.113281 626.753906 601.113281 638.304688 611.546875 C 647.996094 620.488281 650.230469 621.234375 647.996094 615.273438 C 646.503906 611.171875 644.269531 601.855469 643.152344 594.777344 L 641.660156 581.734375 L 648.742188 596.640625 C 652.46875 605.210938 661.410156 616.390625 667.746094 621.980469 Z M 560.792969 632.042969 C 568.992188 640.242188 574.953125 646.949219 573.835938 646.949219 C 572.71875 646.949219 561.167969 643.59375 547.75 639.496094 C 522.410156 631.671875 517.9375 628.316406 513.464844 613.410156 L 510.855469 604.09375 L 522.410156 614.898438 C 535.453125 627.570312 539.550781 626.453125 533.960938 611.917969 C 527.625 594.402344 530.234375 588.441406 538.0625 603.347656 C 542.160156 611.171875 552.222656 624.21875 560.792969 632.042969 Z M 454.585938 610.429688 C 453.46875 613.035156 452.722656 611.171875 452.722656 605.957031 C 452.722656 600.738281 453.46875 598.875 454.585938 601.113281 C 455.332031 603.71875 455.332031 608.191406 454.585938 610.429688 Z M 481.789062 619 C 481.789062 620.863281 479.925781 620.117188 478.0625 617.136719 C 476.199219 614.15625 474.335938 609.683594 474.335938 607.820312 C 474.335938 605.582031 476.199219 606.703125 478.0625 609.683594 C 479.925781 612.664062 481.789062 616.761719 481.789062 619 Z M 509.367188 628.316406 C 506.757812 630.925781 492.96875 613.78125 492.96875 608.191406 C 493.34375 605.957031 497.441406 608.9375 502.285156 615.273438 C 507.128906 621.234375 510.484375 627.199219 509.367188 628.316406 Z M 509.367188 628.316406 " fill-opacity="1" fill-rule="nonzero"/><path fill="#ffffff" d="M 1076.179688 570.179688 C 1069.472656 575.027344 1069.472656 575.398438 1077.300781 579.496094 C 1088.105469 585.460938 1127.234375 584.714844 1135.808594 578.378906 C 1142.515625 573.535156 1142.515625 573.164062 1134.6875 569.0625 C 1123.882812 563.101562 1084.753906 563.847656 1076.179688 570.179688 Z M 1076.179688 570.179688 " fill-opacity="1" fill-rule="nonzero"/><path fill="#ffffff" d="M 157.574219 491.175781 C 157.574219 500.121094 169.128906 531.050781 179.191406 549.683594 C 192.234375 573.535156 250.367188 630.550781 284.28125 652.539062 C 466.882812 772.90625 802.277344 848.183594 1153.695312 848.183594 C 1472.320312 848.183594 1745.476562 788.933594 1905.347656 684.960938 C 1934.789062 665.953125 1994.789062 612.292969 1994.789062 605.210938 C 1994.789062 603.347656 1985.097656 607.074219 1973.546875 613.035156 C 1868.828125 665.210938 1680.261719 712.164062 1483.125 734.523438 C 1281.890625 757.257812 1029.972656 756.511719 832.089844 732.289062 C 607.375 705.082031 399.058594 646.203125 274.21875 575.398438 C 237.699219 554.53125 176.582031 509.808594 165.027344 495.277344 C 160.183594 489.3125 157.574219 487.824219 157.574219 491.175781 Z M 157.574219 491.175781 " fill-opacity="1" fill-rule="nonzero"/><path fill="#ffffff" d="M 148.632812 552.292969 C 128.136719 612.664062 158.695312 667.445312 244.40625 723.34375 C 363.65625 800.859375 588.742188 865.699219 833.953125 892.53125 C 960.285156 906.691406 1015.066406 909.300781 1156.304688 909.300781 C 1305.738281 908.929688 1375.425781 904.457031 1506.601562 886.941406 C 1814.046875 845.578125 2027.953125 743.46875 2038.761719 632.042969 C 2040.25 614.15625 2034.289062 587.324219 2028.328125 587.324219 C 2026.464844 587.324219 2016.773438 598.128906 2006.339844 611.171875 C 1929.199219 708.066406 1779.015625 779.617188 1561.011719 823.960938 C 1435.796875 848.929688 1314.3125 859.738281 1150.714844 859.738281 C 997.921875 860.109375 897.675781 851.910156 755.695312 827.6875 C 467.628906 778.496094 253.347656 681.605469 175.835938 565.710938 C 165.402344 550.058594 156.457031 536.640625 155.710938 535.898438 C 155.339844 535.152344 151.984375 542.605469 148.632812 552.292969 Z M 148.632812 552.292969 " fill-opacity="1" fill-rule="nonzero"/><g clip-path="url(#96babaa2d5)"><path fill="#ffffff" d="M 180.679688 740.113281 C 138.199219 765.082031 118.445312 779.988281 91.242188 808.3125 C 59.566406 841.851562 47.640625 867.5625 47.640625 904.085938 C 47.640625 939.859375 59.195312 966.316406 89.378906 997.621094 C 199.3125 1113.144531 494.832031 1200.347656 857.429688 1224.570312 C 929.726562 1229.414062 1144.378906 1229.414062 1217.792969 1224.570312 C 1627.34375 1197.367188 1949.695312 1088.179688 2015.65625 954.019531 C 2024.972656 935.015625 2026.464844 927.933594 2026.464844 900.359375 C 2026.464844 871.289062 2025.34375 866.816406 2013.792969 845.203125 C 2005.96875 830.671875 1991.804688 813.15625 1976.898438 799.738281 C 1957.519531 781.480469 1953.792969 776.261719 1955.65625 769.554688 C 1957.148438 765.082031 1956.777344 762.101562 1954.914062 762.847656 C 1953.050781 763.589844 1933.296875 773.652344 1910.9375 785.578125 C 1764.855469 860.855469 1569.957031 903.339844 1296.050781 919.363281 C 1157.046875 927.5625 943.886719 920.109375 800.414062 901.847656 C 573.835938 873.527344 350.242188 807.191406 241.050781 736.386719 C 228.753906 728.1875 216.828125 721.480469 214.964844 721.855469 C 213.101562 721.855469 197.824219 730.050781 180.679688 740.113281 Z M 1943.359375 835.140625 C 1945.96875 839.242188 1940.75 836.632812 1931.808594 828.433594 C 1913.175781 811.664062 1908.332031 812.78125 1920.628906 830.296875 L 1929.199219 842.59375 L 1913.921875 829.550781 C 1905.347656 822.472656 1898.269531 815.390625 1898.269531 814.273438 C 1897.894531 813.15625 1901.621094 810.175781 1906.46875 808.3125 C 1913.546875 804.957031 1916.527344 806.074219 1926.964844 816.136719 C 1934.042969 822.472656 1941.125 831.042969 1943.359375 835.140625 Z M 1901.621094 838.125 C 1901.621094 840.359375 1897.523438 838.125 1892.304688 833.277344 C 1887.089844 828.433594 1882.988281 822.84375 1882.988281 820.980469 C 1882.988281 818.746094 1887.089844 820.980469 1892.304688 825.824219 C 1897.523438 830.671875 1901.621094 836.261719 1901.621094 838.125 Z M 1879.261719 837.75 C 1879.261719 839.988281 1876.65625 839.613281 1873.671875 837.003906 C 1870.691406 834.398438 1868.082031 830.671875 1868.082031 828.808594 C 1868.082031 826.570312 1870.691406 826.945312 1873.671875 829.550781 C 1876.65625 832.160156 1879.261719 835.886719 1879.261719 837.75 Z M 1841.996094 860.855469 C 1841.996094 863.089844 1839.386719 861.601562 1836.40625 857.875 C 1833.425781 853.773438 1830.816406 848.558594 1830.816406 846.695312 C 1830.816406 844.457031 1833.425781 845.949219 1836.40625 849.675781 C 1839.386719 853.773438 1841.996094 858.992188 1841.996094 860.855469 Z M 906.621094 932.777344 C 961.03125 937.625 1017.675781 939.113281 1132.824219 939.488281 C 1217.417969 939.488281 1285.242188 940.605469 1283.753906 941.722656 C 1277.046875 947.683594 1233.816406 960.726562 1192.453125 969.300781 C 1051.214844 997.996094 864.511719 985.324219 774.328125 940.605469 C 752.339844 929.796875 738.925781 920.109375 738.925781 915.265625 C 738.925781 914.144531 760.167969 916.007812 786.625 919.734375 C 812.710938 923.089844 866.746094 929.050781 906.621094 932.777344 Z M 625.261719 966.316406 C 653.585938 980.480469 703.523438 998.738281 736.316406 1006.9375 C 750.105469 1010.292969 760.910156 1013.644531 760.167969 1014.390625 C 759.421875 1015.136719 746.003906 1013.273438 729.980469 1010.292969 C 695.324219 1003.585938 691.96875 1003.585938 709.113281 1010.664062 L 722.15625 1015.882812 L 703.523438 1014.019531 L 684.890625 1012.527344 L 697.933594 1017.371094 C 713.582031 1023.707031 706.128906 1024.824219 683.398438 1019.234375 C 661.039062 1014.019531 659.546875 1018.117188 681.535156 1024.824219 C 691.597656 1027.808594 696.441406 1030.414062 691.96875 1030.414062 C 687.871094 1030.789062 676.316406 1028.179688 666.257812 1025.570312 C 644.269531 1018.863281 649.113281 1024.824219 674.082031 1034.886719 C 689.734375 1040.851562 690.480469 1041.59375 679.300781 1039.730469 C 650.605469 1034.515625 580.917969 1011.410156 550.359375 996.875 C 519.800781 982.34375 485.515625 956.257812 485.515625 947.683594 C 485.515625 945.449219 489.242188 947.3125 494.085938 951.410156 C 498.558594 955.511719 508.25 962.21875 515.328125 965.574219 C 528 971.90625 528.371094 971.90625 522.410156 965.199219 C 519.054688 961.101562 514.957031 955.511719 513.09375 952.53125 C 510.484375 947.683594 511.230469 947.683594 519.054688 952.53125 C 524.273438 955.882812 533.214844 960.726562 539.550781 963.335938 C 549.984375 967.808594 550.359375 967.808594 544.769531 961.101562 C 532.472656 947.3125 534.335938 945.820312 551.476562 955.511719 L 569.363281 965.199219 L 562.65625 955.136719 L 556.320312 945.078125 L 566.011719 948.804688 C 571.226562 951.039062 579.054688 954.394531 583.152344 956.628906 L 590.980469 960.726562 L 583.527344 950.292969 C 569.363281 929.796875 569.738281 928.308594 586.507812 941.722656 C 595.449219 949.175781 612.964844 960.355469 625.261719 966.316406 Z M 372.972656 977.871094 C 425.144531 1011.410156 473.589844 1032.277344 568.246094 1062.835938 C 611.847656 1077 624.519531 1084.078125 590.980469 1075.507812 C 581.289062 1073.273438 566.382812 1070.664062 558.183594 1069.917969 C 543.652344 1068.425781 543.277344 1068.425781 552.59375 1074.015625 C 561.910156 1079.605469 561.910156 1079.605469 548.867188 1077.742188 L 535.824219 1075.507812 L 547.003906 1081.46875 C 557.8125 1086.6875 557.8125 1087.058594 548.121094 1084.824219 C 542.90625 1084.078125 535.453125 1082.214844 531.351562 1080.726562 C 527.253906 1079.605469 528.371094 1081.097656 533.960938 1084.824219 C 539.550781 1088.550781 540.667969 1090.042969 536.570312 1088.921875 C 532.472656 1087.433594 525.019531 1085.570312 519.800781 1084.453125 C 500.421875 1080.351562 520.171875 1089.667969 544.023438 1096.375 C 557.066406 1099.730469 566.757812 1103.457031 566.011719 1104.203125 C 563.402344 1107.183594 452.722656 1075.878906 414.710938 1061.71875 C 351.730469 1038.242188 290.242188 1003.585938 274.964844 983.089844 L 267.511719 973.027344 L 277.570312 979.363281 C 292.480469 989.421875 294.34375 987.558594 282.417969 974.890625 C 276.453125 968.554688 273.472656 963.710938 275.707031 963.710938 C 277.945312 963.710938 281.671875 966.316406 284.652344 969.671875 C 289.496094 975.261719 307.757812 986.070312 312.601562 986.070312 C 314.09375 986.070312 310.738281 980.851562 304.402344 974.515625 L 293.597656 962.964844 L 310.367188 972.652344 C 331.609375 984.953125 336.453125 984.953125 325.273438 973.027344 C 314.839844 961.847656 319.683594 960.726562 332.726562 971.164062 C 347.257812 982.714844 348.378906 980.105469 336.453125 961.101562 C 322.664062 939.859375 321.917969 933.152344 334.589844 948.058594 C 339.804688 954.394531 356.949219 967.808594 372.972656 977.871094 Z M 277.945312 1005.449219 C 323.78125 1034.515625 378.191406 1058.738281 462.785156 1086.6875 C 540.667969 1112.773438 550.359375 1116.871094 509.738281 1107.183594 C 482.90625 1100.847656 465.394531 1100.101562 468.746094 1105.320312 C 470.238281 1107.554688 474.710938 1108.300781 479.179688 1107.183594 C 486.261719 1105.320312 486.632812 1105.320312 481.042969 1109.046875 C 476.574219 1112.027344 470.238281 1112.027344 461.292969 1109.417969 C 454.210938 1107.554688 448.996094 1107.183594 450.113281 1109.046875 C 451.230469 1110.910156 457.195312 1113.144531 463.53125 1114.636719 C 469.863281 1116.128906 473.964844 1117.992188 473.21875 1119.109375 C 472.101562 1119.855469 464.273438 1118.734375 455.703125 1116.5 C 432.226562 1110.164062 433.34375 1115.007812 457.195312 1122.460938 C 493.34375 1134.015625 476.945312 1132.523438 431.480469 1120.226562 C 307.011719 1086.6875 201.175781 1036.003906 160.929688 990.542969 C 138.199219 964.828125 135.214844 955.511719 156.085938 975.261719 C 166.148438 984.953125 178.445312 994.640625 183.289062 997.25 L 192.234375 1001.722656 L 184.035156 990.167969 C 175.464844 978.617188 178.816406 973.769531 187.386719 984.578125 C 190.371094 987.558594 195.960938 992.03125 200.058594 994.269531 C 207.511719 998.367188 207.511719 998.367188 200.804688 987.933594 L 193.722656 977.5 L 205.277344 985.324219 C 220.183594 996.132812 222.417969 995.757812 214.59375 983.460938 L 207.886719 973.027344 L 219.808594 981.597656 C 226.144531 986.070312 232.109375 989.796875 233.226562 989.796875 C 234.34375 989.796875 229.5 981.226562 222.417969 970.789062 C 204.53125 943.957031 206.765625 942.09375 228.753906 965.945312 C 239.5625 976.753906 261.546875 994.640625 277.945312 1005.449219 Z M 516.445312 990.167969 C 533.214844 999.113281 574.582031 1015.882812 608.492188 1027.808594 C 642.40625 1039.359375 668.863281 1049.046875 667.375 1049.046875 C 665.882812 1049.421875 652.839844 1046.8125 637.933594 1043.832031 C 606.628906 1037.125 599.921875 1038.988281 626.007812 1047.183594 C 643.523438 1052.773438 643.898438 1052.773438 628.988281 1050.910156 C 620.792969 1049.792969 610.730469 1047.929688 606.628906 1047.183594 C 602.53125 1046.441406 604.394531 1048.304688 610.355469 1051.285156 C 623.398438 1057.621094 619.300781 1058.363281 601.414062 1053.148438 C 580.542969 1047.183594 593.585938 1055.757812 617.808594 1063.957031 C 656.941406 1077.371094 631.972656 1072.527344 572.71875 1055.011719 C 508.25 1036.378906 462.410156 1018.492188 428.5 999.484375 C 403.160156 985.695312 369.992188 958.121094 369.992188 951.410156 C 369.992188 949.175781 375.582031 952.53125 382.289062 958.863281 C 388.625 965.199219 398.3125 972.28125 403.160156 974.890625 C 411.730469 979.363281 411.730469 978.988281 401.296875 965.199219 C 391.605469 951.785156 391.605469 951.410156 399.804688 958.492188 C 419.183594 975.261719 433.714844 978.242188 419.554688 962.964844 C 415.082031 957.746094 418.066406 958.492188 431.109375 965.945312 L 448.996094 976.007812 L 442.289062 965.945312 L 435.578125 955.511719 L 448.621094 963.335938 C 465.765625 973.769531 468.746094 973.027344 459.800781 960.355469 C 447.503906 943.585938 450.484375 943.214844 468.746094 959.238281 C 478.0625 967.4375 499.675781 981.226562 516.445312 990.167969 Z M 551.476562 1115.007812 C 550.359375 1116.128906 547.003906 1116.5 544.394531 1115.382812 C 541.414062 1114.265625 542.53125 1113.144531 546.632812 1113.144531 C 550.730469 1112.773438 552.96875 1113.890625 551.476562 1115.007812 Z M 551.476562 1115.007812 " fill-opacity="1" fill-rule="nonzero"/></g><path fill="#ffffff" d="M 97.578125 1037.125 C 94.96875 1042.714844 92.359375 1057.621094 91.613281 1069.917969 C 87.144531 1128.796875 133.726562 1181.714844 229.5 1226.433594 C 362.539062 1288.667969 547.003906 1322.582031 777.308594 1327.796875 L 880.535156 1330.035156 L 864.882812 1337.488281 C 850.351562 1343.824219 843.269531 1344.195312 783.644531 1342.332031 C 652.839844 1337.488281 566.382812 1329.289062 478.0625 1313.636719 C 360.675781 1292.769531 256.332031 1258.855469 189.996094 1220.097656 C 175.835938 1211.902344 163.539062 1205.9375 162.421875 1207.054688 C 161.675781 1208.175781 160.558594 1222.335938 160.558594 1238.359375 C 160.558594 1304.320312 191.859375 1355.746094 264.527344 1410.527344 C 465.394531 1561.457031 893.578125 1636.359375 1297.914062 1591.269531 C 1492.816406 1569.652344 1658.648438 1526.054688 1791.6875 1461.210938 C 1918.765625 1399.347656 2002.984375 1324.445312 2023.109375 1255.503906 C 2040.25 1196.621094 2014.539062 1135.132812 1950.066406 1079.234375 L 1928.082031 1060.226562 L 1899.015625 1077 C 1758.519531 1158.238281 1518.15625 1215.253906 1230.835938 1236.125 C 1149.96875 1242.085938 921.527344 1242.085938 841.40625 1236.125 C 512.71875 1211.902344 245.523438 1138.859375 115.839844 1037.496094 L 101.675781 1026.316406 Z M 414.710938 1201.839844 C 436.324219 1210.410156 471.355469 1222.335938 492.96875 1228.296875 C 531.351562 1238.730469 532.097656 1242.085938 494.832031 1235.75 C 472.847656 1232.398438 468.375 1233.886719 485.890625 1239.105469 C 498.1875 1242.460938 497.8125 1242.460938 478.4375 1242.832031 C 458.683594 1243.203125 456.074219 1247.304688 472.472656 1252.148438 C 476.574219 1253.265625 472.472656 1253.265625 463.15625 1252.148438 C 441.914062 1249.914062 446.386719 1254.011719 471.355469 1260.347656 C 484.398438 1263.328125 487.753906 1265.191406 481.042969 1265.191406 C 464.648438 1265.9375 359.929688 1237.613281 324.15625 1223.453125 C 286.515625 1208.175781 247.015625 1186.933594 239.1875 1177.617188 C 235.460938 1173.144531 239.1875 1173.890625 252.605469 1180.597656 C 263.039062 1185.816406 275.335938 1191.40625 280.554688 1192.523438 C 289.125 1195.132812 288.753906 1194.011719 276.828125 1183.578125 C 263.785156 1172.027344 263.785156 1172.027344 274.964844 1177.242188 C 281.296875 1180.226562 290.242188 1183.953125 295.460938 1185.070312 C 304.402344 1187.679688 304.402344 1187.304688 293.597656 1178.363281 C 280.554688 1167.183594 282.042969 1166.4375 300.304688 1174.261719 C 320.054688 1182.460938 321.171875 1180.96875 306.640625 1168.300781 L 293.597656 1157.121094 L 334.589844 1171.652344 C 357.320312 1179.851562 393.097656 1193.269531 414.710938 1201.839844 Z M 1783.488281 1187.304688 C 1884.851562 1211.902344 1979.882812 1245.8125 1979.882812 1257.367188 C 1979.882812 1263.699219 1979.507812 1263.699219 1922.117188 1241.714844 C 1872.554688 1222.707031 1803.984375 1202.585938 1742.496094 1189.542969 C 1707.09375 1181.714844 1703.367188 1180.226562 1711.566406 1176.871094 C 1716.785156 1174.636719 1721.628906 1172.773438 1722 1172.773438 C 1722.746094 1172.398438 1750.695312 1179.105469 1783.488281 1187.304688 Z M 508.25 1217.117188 C 555.203125 1227.550781 578.679688 1235.75 547.003906 1230.160156 C 527.253906 1226.808594 457.9375 1209.664062 456.074219 1207.429688 C 453.46875 1204.820312 457.195312 1205.566406 508.25 1217.117188 Z M 1829.699219 1239.851562 C 1878.519531 1256.992188 1929.199219 1279.351562 1946.714844 1292.023438 C 1956.777344 1299.101562 1957.519531 1300.59375 1952.304688 1303.574219 C 1948.949219 1305.4375 1944.105469 1305.8125 1941.496094 1304.320312 C 1938.515625 1302.457031 1938.886719 1303.574219 1942.242188 1307.675781 C 1948.203125 1315.128906 1942.613281 1316.246094 1931.0625 1309.910156 C 1923.609375 1306.183594 1923.609375 1306.183594 1930.316406 1316.617188 L 1937.023438 1327.050781 L 1925.84375 1319.226562 C 1905.722656 1305.4375 1903.859375 1305.066406 1912.429688 1317.363281 L 1921 1329.289062 L 1908.703125 1321.835938 C 1890.070312 1310.65625 1888.578125 1312.144531 1901.25 1328.542969 C 1918.765625 1350.53125 1915.039062 1350.53125 1890.816406 1328.171875 C 1865.847656 1305.066406 1826.71875 1283.453125 1773.054688 1263.699219 C 1736.160156 1249.914062 1715.292969 1240.222656 1733.554688 1245.441406 C 1738.398438 1246.558594 1749.203125 1248.421875 1757.402344 1249.167969 C 1765.972656 1249.914062 1776.035156 1251.402344 1780.507812 1252.519531 C 1786.472656 1254.382812 1786.097656 1253.640625 1778.644531 1248.792969 C 1769.328125 1243.203125 1769.328125 1243.203125 1784.234375 1245.066406 L 1799.140625 1246.929688 L 1773.054688 1235.75 L 1788.707031 1237.613281 C 1797.277344 1238.730469 1807.339844 1240.597656 1811.066406 1241.714844 C 1817.027344 1243.578125 1817.027344 1243.203125 1810.320312 1239.105469 C 1806.59375 1236.496094 1796.53125 1232.398438 1787.960938 1229.789062 C 1779.761719 1227.179688 1776.035156 1224.945312 1779.390625 1224.945312 C 1782.742188 1224.570312 1805.476562 1231.277344 1829.699219 1239.851562 Z M 544.023438 1241.714844 C 542.90625 1242.832031 539.550781 1243.203125 536.941406 1242.085938 C 533.960938 1240.96875 535.078125 1239.851562 539.179688 1239.851562 C 543.277344 1239.476562 545.515625 1240.597656 544.023438 1241.714844 Z M 1745.476562 1260.347656 C 1822.992188 1286.804688 1869.199219 1314.007812 1883.363281 1341.214844 C 1886.714844 1347.921875 1885.226562 1347.175781 1875.164062 1337.859375 C 1868.082031 1331.152344 1858.394531 1324.070312 1853.175781 1321.460938 C 1844.234375 1316.992188 1844.234375 1317.363281 1855.039062 1328.917969 L 1866.21875 1341.214844 L 1851.3125 1331.152344 C 1832.308594 1318.855469 1827.089844 1318.855469 1838.644531 1331.523438 L 1847.585938 1341.585938 L 1836.40625 1333.761719 C 1816.65625 1320.71875 1813.675781 1319.972656 1823.363281 1330.78125 L 1832.679688 1341.214844 L 1819.265625 1333.386719 C 1801.003906 1322.207031 1799.140625 1322.953125 1809.574219 1337.113281 C 1821.128906 1353.140625 1826.34375 1363.574219 1815.910156 1350.15625 C 1800.632812 1331.152344 1761.128906 1306.554688 1714.921875 1287.921875 C 1689.578125 1277.863281 1666.472656 1269.289062 1663.492188 1269.289062 C 1660.511719 1269.289062 1659.019531 1268.171875 1660.140625 1267.054688 C 1661.257812 1265.9375 1671.320312 1267.800781 1682.125 1270.78125 C 1706.347656 1278.234375 1714.546875 1278.234375 1696.660156 1270.78125 L 1683.617188 1265.5625 L 1700.386719 1267.425781 C 1713.058594 1268.917969 1715.292969 1268.546875 1709.703125 1265.5625 C 1704.113281 1262.582031 1706.722656 1262.210938 1720.882812 1263.699219 L 1739.515625 1265.5625 L 1717.15625 1255.875 C 1695.542969 1246.558594 1689.578125 1243.203125 1693.679688 1243.203125 C 1694.796875 1243.203125 1718.273438 1251.03125 1745.476562 1260.347656 Z M 1682.125 1282.707031 C 1745.851562 1304.320312 1779.015625 1323.699219 1790.570312 1345.3125 C 1794.296875 1352.765625 1794.296875 1352.765625 1787.589844 1347.175781 C 1783.863281 1343.824219 1776.410156 1338.976562 1771.5625 1336.371094 C 1761.875 1331.523438 1762.621094 1334.878906 1774.546875 1349.039062 C 1778.273438 1353.511719 1774.917969 1352.019531 1766.347656 1345.6875 C 1752.929688 1335.625 1742.496094 1334.132812 1754.421875 1343.824219 C 1757.402344 1346.429688 1760.011719 1350.15625 1760.011719 1352.394531 C 1760.011719 1354.257812 1757.03125 1353.511719 1753.675781 1350.53125 C 1740.261719 1339.351562 1736.535156 1338.605469 1739.515625 1347.921875 C 1740.632812 1352.765625 1740.632812 1355.003906 1738.769531 1353.140625 C 1737.28125 1350.902344 1732.433594 1346.804688 1728.707031 1343.824219 C 1722 1338.605469 1721.628906 1338.605469 1726.101562 1347.175781 C 1730.945312 1355.746094 1730.945312 1355.746094 1722.375 1349.785156 C 1708.957031 1340.46875 1707.46875 1342.703125 1716.039062 1357.609375 L 1724.238281 1371.773438 L 1707.09375 1356.121094 C 1686.96875 1337.859375 1655.667969 1321.460938 1609.085938 1304.320312 C 1572.9375 1290.90625 1570.699219 1288.667969 1603.496094 1297.238281 C 1626.601562 1303.203125 1633.308594 1302.085938 1612.8125 1295.375 C 1605.359375 1292.769531 1600.140625 1290.160156 1600.886719 1289.414062 C 1601.632812 1288.296875 1607.222656 1289.414062 1612.8125 1291.648438 C 1624.363281 1296.121094 1638.523438 1293.140625 1634.796875 1287.179688 C 1632.933594 1284.195312 1637.78125 1283.824219 1650.078125 1285.316406 C 1670.945312 1288.296875 1670.199219 1286.804688 1645.605469 1274.507812 C 1635.917969 1269.664062 1628.835938 1265.5625 1629.953125 1265.5625 C 1631.445312 1265.5625 1654.921875 1273.390625 1682.125 1282.707031 Z M 1318.410156 1310.28125 C 1407.101562 1316.617188 1480.144531 1333.761719 1520.019531 1356.867188 C 1541.632812 1369.535156 1558.777344 1390.03125 1558.777344 1403.449219 C 1558.777344 1428.417969 1515.175781 1457.484375 1452.566406 1473.878906 C 1330.707031 1505.558594 1154.441406 1502.203125 1045.625 1466.054688 C 1004.632812 1452.640625 980.40625 1438.105469 969.972656 1421.335938 C 960.285156 1405.683594 960.65625 1400.09375 971.089844 1384.441406 C 996.058594 1347.175781 1083.261719 1318.855469 1197.296875 1310.65625 C 1255.058594 1306.183594 1261.394531 1306.183594 1318.410156 1310.28125 Z M 822.402344 1457.855469 C 835.445312 1469.035156 860.039062 1482.453125 906.621094 1503.691406 L 915.9375 1508.164062 L 906.621094 1505.929688 C 901.402344 1504.8125 892.460938 1502.949219 886.125 1501.828125 L 874.945312 1499.964844 L 886.125 1505.558594 L 897.304688 1511.148438 L 886.125 1508.910156 C 880.164062 1507.792969 871.21875 1505.183594 866.746094 1503.691406 C 861.902344 1501.828125 858.175781 1501.457031 858.175781 1502.574219 C 858.175781 1503.691406 863.394531 1506.300781 869.726562 1508.539062 C 888.359375 1514.875 879.042969 1516.363281 857.804688 1510.027344 C 832.835938 1502.574219 830.226562 1502.949219 848.859375 1511.890625 C 866.375 1520.089844 856.3125 1521.582031 836.933594 1513.382812 C 829.480469 1510.402344 822.773438 1508.539062 821.65625 1509.65625 C 820.539062 1510.773438 828.363281 1514.875 839.171875 1519.34375 C 849.605469 1523.816406 857.804688 1528.289062 856.683594 1529.035156 C 853.703125 1532.386719 777.308594 1499.964844 759.421875 1487.667969 C 737.0625 1472.761719 733.335938 1468.664062 725.507812 1449.65625 L 719.546875 1435.125 L 730.355469 1446.675781 C 735.945312 1453.011719 744.886719 1461.210938 749.730469 1465.308594 L 758.304688 1472.390625 L 750.105469 1458.230469 C 745.632812 1450.402344 742.652344 1442.949219 744.140625 1441.832031 C 745.261719 1440.714844 747.125 1442.578125 748.613281 1445.929688 C 750.105469 1449.285156 756.066406 1454.875 762.03125 1457.855469 L 773.210938 1463.820312 L 767.246094 1455.246094 C 758.675781 1442.578125 759.792969 1438.105469 769.855469 1446.675781 C 774.328125 1450.777344 781.40625 1456.367188 785.507812 1459.347656 C 792.585938 1464.9375 792.585938 1464.5625 786.253906 1455.621094 C 776.5625 1441.460938 778.800781 1439.222656 791.46875 1450.03125 C 805.628906 1461.582031 808.238281 1460.464844 800.414062 1445.929688 C 797.433594 1439.96875 794.824219 1431.769531 794.824219 1427.671875 C 794.824219 1422.082031 796.6875 1423.570312 801.160156 1432.515625 C 804.511719 1439.222656 813.828125 1450.777344 822.402344 1457.855469 Z M 618.929688 1454.875 C 635.324219 1479.46875 661.785156 1498.847656 714.328125 1524.933594 C 762.402344 1548.414062 769.484375 1554.003906 738.925781 1543.195312 C 717.683594 1535.742188 707.992188 1536.113281 720.292969 1543.566406 C 726.625 1547.667969 727.371094 1548.414062 722.15625 1546.921875 C 718.054688 1545.429688 707.621094 1543.941406 699.050781 1542.824219 C 616.691406 1534.996094 560.421875 1502.574219 547.003906 1455.621094 C 544.769531 1447.050781 545.140625 1447.421875 551.851562 1457.484375 C 555.578125 1463.445312 562.65625 1472.015625 567.5 1476.117188 L 576.074219 1483.570312 L 569.738281 1471.644531 C 561.167969 1454.875 562.285156 1453.382812 573.464844 1466.425781 C 586.132812 1481.332031 591.722656 1481.332031 583.898438 1465.683594 L 577.9375 1453.757812 L 589.488281 1464.5625 C 601.414062 1476.117188 604.023438 1475.371094 597.3125 1462.699219 C 595.078125 1458.601562 594.707031 1455.621094 596.941406 1455.621094 C 598.804688 1455.621094 601.039062 1457.855469 602.160156 1460.835938 C 603.277344 1463.820312 607.75 1467.917969 611.476562 1470.152344 C 618.929688 1473.878906 618.929688 1473.878906 611.476562 1454.503906 C 603.277344 1432.515625 604.023438 1432.886719 618.929688 1454.875 Z M 563.03125 1499.222656 C 575.699219 1510.027344 585.015625 1518.972656 583.527344 1518.972656 C 579.425781 1518.972656 500.796875 1494.75 488.496094 1489.90625 C 482.90625 1487.667969 475.828125 1480.589844 472.472656 1474.625 C 463.53125 1457.109375 465.765625 1457.109375 481.789062 1474.625 L 496.695312 1491.023438 L 490.734375 1476.117188 L 484.769531 1461.210938 L 516.074219 1491.023438 L 499.675781 1457.484375 L 513.09375 1470.152344 C 528 1484.6875 529.117188 1483.941406 520.917969 1464.191406 C 511.230469 1441.085938 514.957031 1438.476562 527.625 1459.347656 C 533.960938 1470.527344 549.984375 1488.414062 563.03125 1499.222656 Z M 667 1470.527344 C 665.882812 1467.546875 663.648438 1461.582031 662.15625 1457.484375 C 659.546875 1451.148438 661.410156 1451.894531 671.472656 1460.464844 C 683.398438 1470.152344 693.085938 1471.644531 683.769531 1462.328125 C 675.199219 1453.757812 679.300781 1451.519531 689.359375 1458.972656 C 700.539062 1467.917969 703.894531 1466.800781 698.304688 1456.367188 C 689.734375 1440.714844 694.949219 1442.949219 717.683594 1464.9375 C 735.945312 1483.195312 750.851562 1492.886719 787.371094 1510.773438 C 813.082031 1523.445312 832.835938 1533.878906 831.71875 1533.878906 C 830.597656 1533.878906 817.183594 1529.78125 802.277344 1524.5625 C 773.953125 1514.875 762.402344 1514.5 784.015625 1524.191406 C 791.097656 1527.171875 794.449219 1529.78125 791.84375 1529.78125 C 789.234375 1530.152344 781.78125 1527.542969 775.816406 1524.191406 C 759.046875 1515.617188 758.304688 1520.835938 775.074219 1530.152344 C 790.351562 1538.722656 786.253906 1537.976562 764.265625 1528.660156 C 745.632812 1520.464844 746.003906 1524.191406 765.011719 1533.878906 C 773.210938 1537.976562 779.917969 1542.078125 779.917969 1542.824219 C 779.917969 1545.804688 727.746094 1524.933594 701.660156 1511.148438 C 670.355469 1495.121094 645.015625 1471.644531 639.050781 1452.640625 C 634.953125 1440.339844 634.953125 1440.339844 651.722656 1458.230469 C 661.039062 1467.917969 667.746094 1473.507812 667 1470.527344 Z M 464.648438 1481.332031 C 462.039062 1484.316406 452.722656 1472.761719 450.113281 1463.074219 C 447.878906 1455.246094 448.996094 1455.992188 456.820312 1466.800781 C 462.039062 1473.878906 465.394531 1480.589844 464.648438 1481.332031 Z M 464.648438 1481.332031 " fill-opacity="1" fill-rule="nonzero"/><path fill="#ffffff" d="M 1233.445312 1396.367188 C 1215.929688 1406.429688 1252.078125 1418.355469 1278.910156 1410.902344 C 1294.933594 1406.800781 1297.167969 1404.191406 1289.714844 1396.738281 C 1284.125 1391.148438 1242.761719 1391.148438 1233.445312 1396.367188 Z M 1233.445312 1396.367188 " fill-opacity="1" fill-rule="nonzero"/><g clip-path="url(#9b22fb102c)"><path fill="#ffffff" d="M 2024.972656 1287.921875 C 2005.96875 1328.171875 1947.832031 1384.441406 1882.988281 1426.554688 C 1844.605469 1451.148438 1760.011719 1492.511719 1705.230469 1512.636719 C 1587.097656 1556.984375 1425.734375 1591.269531 1253.195312 1609.15625 C 1189.097656 1615.863281 903.269531 1615.863281 854.449219 1609.15625 C 835.070312 1606.546875 794.824219 1600.957031 765.011719 1596.859375 C 565.265625 1569.652344 395.707031 1513.382812 279.433594 1435.871094 L 243.289062 1411.644531 L 243.289062 1425.433594 C 243.660156 1465.308594 261.921875 1502.949219 300.675781 1543.941406 C 412.847656 1662.445312 671.101562 1748.15625 1020.28125 1782.070312 C 1101.523438 1789.894531 1310.585938 1792.878906 1398.53125 1787.660156 C 1653.429688 1772.007812 1871.0625 1725.054688 2015.285156 1654.992188 C 2077.144531 1624.808594 2116.648438 1598.722656 2149.8125 1565.554688 C 2179.625 1535.742188 2198.632812 1501.828125 2201.984375 1472.015625 C 2204.59375 1450.777344 2196.394531 1417.238281 2183.726562 1395.996094 C 2163.976562 1363.574219 2114.410156 1320.71875 2064.476562 1293.511719 C 2050.6875 1286.058594 2038.015625 1277.488281 2036.523438 1274.507812 C 2034.660156 1271.152344 2030.933594 1274.878906 2024.972656 1287.921875 Z M 2045.097656 1327.425781 C 2075.28125 1347.550781 2095.777344 1364.320312 2106.585938 1378.105469 C 2112.921875 1385.933594 2117.390625 1392.269531 2116.648438 1392.269531 C 2115.902344 1392.269531 2108.449219 1387.050781 2100.621094 1380.714844 C 2075.65625 1360.964844 2070.4375 1359.847656 2084.597656 1377.734375 L 2097.269531 1394.132812 L 2084.226562 1384.070312 C 2077.144531 1378.851562 2065.59375 1371.773438 2058.511719 1368.046875 L 2045.46875 1361.710938 L 2058.140625 1377.363281 L 2070.808594 1393.386719 L 2051.058594 1379.226562 C 2030.191406 1364.320312 2022.363281 1363.199219 2037.644531 1377.363281 C 2053.667969 1392.269531 2047.703125 1393.011719 2027.582031 1378.480469 C 2008.574219 1364.691406 2006.710938 1366.554688 2022.363281 1384.441406 C 2030.191406 1393.386719 2029.816406 1393.386719 2015.285156 1383.695312 C 1992.179688 1368.046875 1989.199219 1371.398438 2005.59375 1394.875 C 2014.164062 1406.429688 2020.875 1417.238281 2020.875 1419.472656 C 2020.875 1422.082031 1999.257812 1397.484375 1985.84375 1379.226562 C 1983.609375 1376.242188 1987.335938 1368.046875 1997.394531 1354.628906 C 2005.59375 1343.449219 2014.539062 1330.78125 2016.773438 1325.933594 C 2022.363281 1315.5 2027.207031 1315.5 2045.097656 1327.425781 Z M 1973.917969 1401.585938 C 1977.273438 1406.429688 1979.882812 1411.644531 1979.882812 1413.136719 C 1979.882812 1416.863281 1968.703125 1406.800781 1964.601562 1398.976562 C 1959.011719 1388.914062 1966.839844 1390.777344 1973.917969 1401.585938 Z M 385.269531 1542.449219 C 402.414062 1555.121094 405.765625 1555.121094 396.824219 1542.078125 C 384.527344 1524.5625 383.40625 1520.464844 392.722656 1528.660156 C 397.570312 1533.132812 406.511719 1539.839844 412.476562 1543.566406 L 423.28125 1550.648438 L 416.945312 1540.214844 C 408.75 1528.289062 411.730469 1527.542969 425.890625 1537.605469 C 431.480469 1541.703125 437.070312 1543.941406 438.1875 1542.824219 C 441.914062 1538.722656 493.714844 1560.335938 522.035156 1577.480469 C 560.421875 1600.585938 599.550781 1618.101562 665.511719 1641.949219 C 719.171875 1660.957031 737.0625 1670.644531 697.558594 1659.09375 C 676.316406 1652.757812 660.667969 1651.265625 673.710938 1656.855469 L 681.164062 1660.210938 L 673.710938 1660.210938 C 667.375 1660.582031 667 1661.328125 671.847656 1664.683594 C 675.945312 1667.289062 673.335938 1667.664062 662.53125 1666.546875 L 647.625 1664.683594 L 662.53125 1669.527344 C 672.21875 1672.878906 674.453125 1675.117188 669.609375 1675.117188 C 665.136719 1675.488281 656.566406 1673.625 649.859375 1671.390625 C 643.152344 1669.152344 637.1875 1668.035156 636.070312 1669.152344 C 634.953125 1670.273438 645.761719 1675.117188 660.292969 1679.589844 C 707.25 1694.867188 684.890625 1691.515625 630.109375 1675.488281 C 539.925781 1648.65625 480.671875 1622.570312 424.027344 1584.933594 C 388.625 1561.457031 372.972656 1547.292969 359.183594 1527.917969 L 346.515625 1509.65625 L 359.183594 1521.207031 C 366.265625 1527.542969 377.816406 1537.234375 385.269531 1542.449219 Z M 595.824219 1587.914062 C 624.144531 1594.996094 671.101562 1604.683594 700.167969 1609.902344 C 732.589844 1615.492188 758.304688 1621.828125 767.246094 1627.042969 C 775.074219 1631.144531 778.800781 1634.125 775.445312 1633.007812 C 772.089844 1631.886719 762.773438 1630.023438 754.949219 1628.90625 C 740.789062 1626.671875 740.789062 1626.671875 750.105469 1632.632812 C 757.558594 1637.476562 757.929688 1638.222656 751.96875 1636.734375 C 747.867188 1635.988281 739.671875 1634.125 733.335938 1633.007812 L 722.15625 1630.769531 L 735.199219 1638.597656 C 748.613281 1646.421875 747.496094 1646.421875 720.292969 1639.714844 C 706.503906 1635.988281 712.09375 1640.460938 733.335938 1649.03125 C 762.773438 1661.699219 734.824219 1654.992188 675.945312 1635.988281 C 630.480469 1621.082031 541.414062 1581.953125 541.414062 1577.105469 C 541.414062 1574.125 538.433594 1573.378906 595.824219 1587.914062 Z M 785.507812 1623.316406 C 790.351562 1625.179688 790.722656 1626.671875 787.371094 1626.671875 C 784.390625 1626.671875 778.425781 1625.179688 774.328125 1623.316406 C 769.484375 1621.453125 769.109375 1619.964844 772.464844 1619.964844 C 775.445312 1619.964844 781.40625 1621.453125 785.507812 1623.316406 Z M 785.507812 1623.316406 " fill-opacity="1" fill-rule="nonzero"/></g><path fill="#ffffff" d="M 253.347656 1556.984375 C 199.3125 1629.28125 207.140625 1703.4375 275.707031 1776.480469 C 348.003906 1853.246094 473.21875 1917.34375 645.015625 1965.792969 C 979.289062 2060.445312 1451.824219 2064.917969 1786.097656 1976.972656 C 1997.769531 1921.070312 2139.007812 1839.460938 2181.863281 1747.785156 C 2205.710938 1696.359375 2197.886719 1652.382812 2154.660156 1593.878906 L 2148.324219 1585.679688 L 2121.863281 1606.175781 C 2002.242188 1698.59375 1787.214844 1762.691406 1493.558594 1793.621094 C 1412.691406 1802.195312 1102.640625 1803.3125 1022.144531 1795.484375 C 889.851562 1782.441406 780.664062 1764.183594 677.4375 1738.097656 C 499.675781 1693.378906 374.089844 1634.496094 299.558594 1561.457031 C 284.28125 1546.175781 271.238281 1533.878906 270.863281 1533.878906 C 270.863281 1533.878906 262.664062 1544.3125 253.347656 1556.984375 Z M 601.414062 1795.859375 C 643.523438 1820.453125 676.691406 1834.988281 747.496094 1859.957031 C 775.816406 1869.644531 798.175781 1878.214844 797.433594 1878.960938 C 796.6875 1879.707031 784.390625 1877.84375 770.226562 1874.863281 C 736.6875 1867.78125 732.960938 1868.15625 755.695312 1877.097656 C 774.328125 1884.179688 771.347656 1884.179688 738.925781 1877.84375 C 731.472656 1876.351562 730.726562 1876.726562 735.199219 1880.453125 C 739.671875 1883.804688 738.550781 1884.179688 729.609375 1882.6875 L 718.429688 1880.453125 L 727.746094 1886.042969 L 737.0625 1892.003906 L 727 1890.140625 C 721.78125 1889.023438 714.328125 1886.789062 710.230469 1885.296875 C 694.949219 1880.078125 709.855469 1889.023438 730.355469 1897.59375 C 762.03125 1911.011719 737.808594 1905.792969 668.492188 1883.433594 C 607.375 1864.054688 526.882812 1827.160156 495.949219 1804.429688 C 486.632812 1797.347656 473.21875 1783.1875 466.511719 1773.5 L 454.210938 1755.609375 L 470.609375 1768.28125 C 497.8125 1789.152344 498.558594 1789.523438 489.988281 1777.226562 C 478.4375 1761.199219 479.554688 1759.335938 494.085938 1770.144531 C 510.113281 1782.441406 513.464844 1782.441406 505.265625 1769.773438 L 498.558594 1759.335938 L 509.738281 1767.164062 C 528.746094 1780.207031 532.84375 1782.070312 525.761719 1773.5 C 515.328125 1761.945312 517.9375 1760.828125 532.84375 1769.398438 C 547.378906 1777.972656 547.003906 1776.480469 532.097656 1755.609375 C 514.957031 1732.132812 519.429688 1730.644531 542.160156 1752.257812 C 555.203125 1764.554688 581.664062 1784.304688 601.414062 1795.859375 Z M 596.941406 1768.65625 C 607.003906 1773.871094 607.003906 1768.28125 597.3125 1759.335938 C 585.390625 1748.53125 592.097656 1748.15625 606.257812 1758.964844 C 620.417969 1769.773438 626.753906 1771.636719 619.671875 1763.0625 C 611.847656 1753.746094 618.554688 1752.257812 629.363281 1760.828125 C 636.441406 1766.417969 640.542969 1767.535156 642.035156 1764.554688 C 645.761719 1758.59375 655.820312 1762.320312 710.976562 1789.523438 C 737.808594 1802.9375 782.898438 1821.945312 811.59375 1832.378906 C 840.289062 1842.441406 858.921875 1849.894531 852.585938 1848.402344 C 831.34375 1843.929688 804.140625 1840.203125 803.023438 1841.324219 C 802.277344 1842.066406 809.730469 1845.050781 819.792969 1848.402344 C 837.308594 1853.992188 835.816406 1853.992188 801.53125 1848.777344 L 789.234375 1846.914062 L 802.277344 1852.128906 C 817.183594 1858.464844 810.101562 1859.957031 791.46875 1854.367188 C 769.109375 1848.03125 774.699219 1853.246094 800.039062 1862.191406 C 813.457031 1867.035156 823.519531 1871.507812 823.144531 1872.253906 C 820.539062 1874.488281 728.492188 1846.167969 692.34375 1831.632812 C 627.125 1805.546875 577.9375 1773.125 563.773438 1745.921875 C 559.675781 1738.839844 561.910156 1739.585938 574.210938 1750.765625 C 582.40625 1758.21875 592.84375 1766.046875 596.941406 1768.65625 Z M 477.316406 1806.292969 C 523.15625 1836.105469 586.507812 1865.171875 662.15625 1891.257812 C 692.714844 1901.695312 718.429688 1911.011719 719.546875 1912.128906 C 722.527344 1915.109375 714.328125 1914.363281 704.640625 1910.636719 C 699.796875 1909.148438 687.871094 1906.539062 677.4375 1905.421875 L 658.804688 1903.183594 L 673.710938 1908.773438 L 688.617188 1913.992188 L 673.710938 1911.753906 C 665.511719 1910.636719 655.820312 1908.773438 651.722656 1907.65625 C 647.25 1906.539062 645.761719 1907.285156 647.25 1909.890625 C 648.742188 1912.128906 653.585938 1913.992188 658.058594 1913.992188 C 665.136719 1914.363281 665.511719 1914.738281 659.921875 1917.71875 C 655.820312 1920.328125 650.230469 1920.328125 643.898438 1917.71875 C 631.597656 1912.875 628.246094 1912.875 633.089844 1917.71875 C 634.953125 1919.582031 648.367188 1925.542969 662.53125 1930.761719 C 711.71875 1948.277344 662.53125 1935.605469 591.722656 1912.128906 C 484.769531 1877.097656 413.21875 1840.203125 365.890625 1795.859375 C 343.160156 1774.617188 331.980469 1756.730469 352.847656 1774.988281 C 360.300781 1781.699219 373.71875 1790.640625 382.289062 1795.113281 L 397.941406 1802.9375 L 387.878906 1792.132812 C 372.972656 1776.480469 374.835938 1775.363281 395.332031 1786.542969 L 412.847656 1796.230469 L 406.140625 1786.167969 L 399.433594 1775.734375 L 414.710938 1783.5625 C 431.480469 1792.132812 431.480469 1791.386719 413.964844 1767.164062 C 398.3125 1745.175781 401.296875 1743.6875 421.417969 1763.4375 C 431.109375 1773.125 456.074219 1792.503906 477.316406 1806.292969 Z M 776.191406 1790.269531 C 806.003906 1796.230469 845.132812 1803.683594 863.394531 1806.292969 C 883.515625 1809.273438 893.949219 1811.882812 889.480469 1813.375 C 883.515625 1815.609375 884.261719 1816.355469 893.578125 1820.082031 L 904.757812 1824.554688 L 891.714844 1822.316406 C 884.632812 1821.199219 873.828125 1819.707031 867.492188 1818.589844 C 855.195312 1816.726562 853.703125 1815.980469 882.398438 1828.652344 C 889.480469 1832.007812 879.042969 1830.886719 856.3125 1826.042969 C 852.214844 1825.296875 858.921875 1829.769531 871.21875 1835.734375 C 899.914062 1849.894531 886.496094 1847.285156 816.4375 1824.179688 C 766.5 1807.785156 690.480469 1773.5 712.839844 1777.597656 C 718.054688 1778.34375 746.378906 1783.933594 776.191406 1790.269531 Z M 911.464844 1815.980469 C 908.859375 1816.726562 904.386719 1816.726562 902.148438 1815.980469 C 899.539062 1814.863281 901.402344 1814.117188 906.621094 1814.117188 C 911.839844 1814.117188 913.703125 1814.863281 911.464844 1815.980469 Z M 911.464844 1815.980469 " fill-opacity="1" fill-rule="nonzero"/><path fill="#ffffff" d="M 185.898438 1746.667969 C 105.402344 1832.007812 108.011719 1919.582031 193.351562 2001.9375 C 255.210938 2061.9375 363.285156 2118.207031 500.421875 2161.4375 C 753.457031 2241.1875 1093.324219 2268.761719 1400.394531 2234.105469 C 1778.644531 2191.621094 2050.3125 2075.726562 2106.585938 1932.996094 C 2115.15625 1911.011719 2120.375 1871.882812 2116.273438 1856.601562 L 2114.039062 1847.285156 L 2090.5625 1863.308594 C 1963.484375 1952.003906 1745.851562 2014.980469 1469.335938 2043.304688 C 1386.980469 2051.503906 1110.09375 2052.992188 1027.734375 2045.167969 C 785.878906 2022.433594 612.964844 1982.1875 454.210938 1911.382812 C 382.664062 1879.335938 326.019531 1842.8125 279.0625 1798.839844 C 256.332031 1777.226562 220.929688 1730.269531 220.929688 1721.328125 C 220.929688 1711.636719 213.847656 1716.855469 185.898438 1746.667969 Z M 487.378906 1989.640625 C 506.011719 2001.566406 531.726562 2017.21875 545.140625 2023.925781 C 569.738281 2036.222656 656.941406 2069.761719 686.007812 2078.335938 C 712.464844 2086.160156 700.914062 2086.160156 667.746094 2078.335938 C 650.605469 2074.234375 636.070312 2071.625 635.324219 2072.371094 C 634.578125 2072.746094 641.289062 2076.097656 650.230469 2079.453125 C 659.175781 2082.804688 662.15625 2084.667969 656.941406 2083.925781 C 651.722656 2083.179688 641.660156 2081.316406 634.578125 2080.199219 L 621.535156 2077.960938 L 636.441406 2085.414062 C 649.488281 2091.75 649.859375 2092.496094 640.171875 2090.257812 C 634.207031 2089.140625 625.261719 2086.53125 620.417969 2085.042969 C 605.511719 2079.453125 605.886719 2082.0625 621.535156 2089.515625 C 639.050781 2097.710938 628.988281 2099.203125 609.613281 2091.003906 C 602.160156 2088.023438 595.449219 2085.789062 594.707031 2086.53125 C 592.84375 2088.394531 636.070312 2107.773438 642.035156 2107.773438 C 645.015625 2107.773438 646.132812 2108.519531 645.015625 2110.011719 C 641.289062 2113.363281 542.160156 2082.0625 498.1875 2063.054688 C 425.144531 2031.75 367.382812 1992.25 349.867188 1962.066406 L 342.414062 1949.765625 L 361.046875 1965.417969 C 382.664062 1983.679688 388.253906 1985.167969 378.191406 1970.636719 C 365.519531 1952.375 364.773438 1949.394531 375.953125 1959.082031 C 381.917969 1964.671875 390.488281 1971.007812 395.332031 1973.617188 C 403.53125 1977.714844 403.902344 1977.34375 400.175781 1970.261719 C 397.941406 1966.164062 394.214844 1961.691406 392.351562 1960.574219 C 390.117188 1959.457031 388.625 1956.476562 388.625 1954.238281 C 388.625 1952.375 394.585938 1955.730469 401.667969 1962.066406 C 418.808594 1976.972656 425.144531 1976.972656 414.339844 1961.691406 L 405.765625 1949.765625 L 423.28125 1962.066406 C 432.972656 1968.398438 440.796875 1972.5 440.796875 1970.261719 C 440.796875 1968.398438 438.933594 1965.417969 437.070312 1964.300781 C 433.34375 1962.066406 418.4375 1935.234375 418.4375 1930.386719 C 418.4375 1929.269531 426.261719 1937.097656 436.324219 1947.902344 C 446.015625 1958.710938 469.121094 1977.34375 487.378906 1989.640625 Z M 369.246094 2004.921875 C 413.59375 2033.617188 468.375 2060.820312 534.335938 2086.90625 C 568.246094 2099.949219 600.667969 2112.246094 606.257812 2113.738281 C 611.847656 2114.855469 615.574219 2116.71875 614.828125 2117.835938 C 613.710938 2118.582031 602.902344 2116.71875 590.605469 2113.738281 C 578.308594 2110.382812 563.402344 2107.773438 557.8125 2108.148438 L 547.003906 2108.519531 L 558.183594 2113.363281 C 571.226562 2119.328125 563.773438 2120.445312 545.886719 2115.601562 C 530.609375 2111.128906 530.609375 2113.738281 546.257812 2120.816406 L 558.183594 2126.40625 L 547.003906 2124.542969 C 541.042969 2123.425781 532.472656 2121.191406 528.371094 2120.070312 C 513.09375 2115.601562 526.882812 2123.800781 549.613281 2132.371094 C 586.507812 2146.53125 554.085938 2138.707031 492.597656 2118.953125 C 396.824219 2087.652344 298.441406 2035.480469 255.585938 1992.621094 C 226.890625 1964.300781 223.535156 1954.984375 249.621094 1975.109375 C 275.335938 1995.605469 280.554688 1996.722656 267.882812 1979.953125 C 253.722656 1961.691406 255.957031 1959.828125 273.101562 1975.109375 C 291.734375 1991.878906 294.714844 1992.25 283.535156 1976.597656 L 274.964844 1964.300781 L 289.125 1975.109375 C 303.660156 1986.289062 307.386719 1984.796875 296.578125 1972.5 C 290.242188 1965.417969 290.242188 1965.417969 297.324219 1969.519531 C 301.421875 1971.753906 308.875 1976.597656 314.09375 1980.324219 L 323.410156 1986.660156 L 313.347656 1973.617188 C 308.128906 1966.535156 301.050781 1954.984375 297.695312 1948.277344 C 292.480469 1938.585938 296.207031 1940.824219 316.703125 1961.691406 C 330.488281 1975.480469 354.339844 1994.859375 369.246094 2004.921875 Z M 494.832031 1968.398438 C 506.011719 1975.109375 506.011719 1975.109375 499.675781 1967.65625 C 489.617188 1956.101562 491.480469 1954.238281 505.265625 1960.945312 C 511.601562 1964.671875 545.886719 1976.972656 580.542969 1988.894531 C 675.574219 2020.945312 795.570312 2068.644531 738.925781 2051.875 C 731.84375 2049.640625 719.917969 2047.03125 712.839844 2046.285156 C 700.167969 2044.796875 700.167969 2044.796875 707.25 2050.386719 C 714.328125 2056.347656 714.328125 2056.347656 704.640625 2054.113281 C 699.421875 2052.992188 691.96875 2051.128906 687.871094 2050.011719 C 684.144531 2048.894531 687.871094 2051.503906 696.070312 2055.601562 C 713.957031 2064.171875 708.738281 2065.292969 686.378906 2057.464844 C 677.0625 2054.113281 671.847656 2053.367188 674.082031 2055.601562 C 676.691406 2058.210938 688.988281 2063.800781 702.03125 2068.644531 C 738.925781 2082.433594 722.15625 2079.453125 668.121094 2063.054688 C 581.289062 2036.222656 515.328125 2003.058594 481.417969 1969.144531 C 462.410156 1950.140625 455.332031 1935.234375 473.589844 1952.003906 C 479.179688 1957.21875 488.871094 1964.671875 494.832031 1968.398438 Z M 748.613281 2033.617188 C 768.363281 2039.949219 783.644531 2045.539062 782.527344 2046.660156 C 781.035156 2048.148438 725.882812 2033.242188 709.113281 2026.160156 C 687.871094 2017.589844 714.703125 2022.808594 748.613281 2033.617188 Z M 748.613281 2033.617188 " fill-opacity="1" fill-rule="nonzero"/></svg>